<svg width="302" height="327" viewBox="0 0 302 327" fill="none" xmlns="http://www.w3.org/2000/svg">
<g clip-path="url(#clip0_3219_77013)">
<path fill-rule="evenodd" clip-rule="evenodd" d="M7.31393 -7.03098C7.25265 -12.0881 13.038 -17.6935 19.3973 -20.2592C25.7566 -22.825 30.6288 -22.4886 33.8423 -20.6737C37.0557 -18.8588 57.6683 8.97683 57.523 16.9284C57.3777 24.8801 58.6117 57.137 50.1848 53.4696C46.2266 51.7469 17.5162 10.9879 14.3885 6.15647C10.8575 0.702141 7.36829 -2.54467 7.31393 -7.03098Z" fill="white" stroke="#3038E5" stroke-width="2.24483"/>
<mask id="mask0_3219_77013" style="mask-type:luminance" maskUnits="userSpaceOnUse" x="6" y="-24" width="53" height="79">
<path fill-rule="evenodd" clip-rule="evenodd" d="M7.31393 -7.03098C7.25265 -12.0881 13.038 -17.6935 19.3973 -20.2592C25.7566 -22.825 30.6288 -22.4886 33.8423 -20.6737C37.0557 -18.8588 57.6683 8.97683 57.523 16.9284C57.3777 24.8801 58.6117 57.137 50.1848 53.4696C46.2266 51.7469 17.5162 10.9879 14.3885 6.15647C10.8575 0.702141 7.36829 -2.54467 7.31393 -7.03098Z" fill="white" stroke="white" stroke-width="2.24483"/>
</mask>
<g mask="url(#mask0_3219_77013)">
<path opacity="0.183105" fill-rule="evenodd" clip-rule="evenodd" d="M36.6698 -22.5117H42.9554V176.829L32.1426 176.208L36.6698 -22.5117Z" fill="#3038E5"/>
</g>
<path d="M26.2774 64.5934C23.7744 63.0407 21.7966 61.2259 20.2499 59.4315C21.9879 60.5818 24.1306 61.7219 26.7659 62.7493C32.5429 65.0016 37.7505 64.6945 42.2318 62.0455C46.6591 59.4285 50.2255 54.6151 52.983 48.1555C53.2939 47.427 53.5645 47.0701 53.7387 46.9195C53.779 46.8847 53.8074 46.8668 53.8236 46.8581C53.8892 46.8814 54.0838 46.9865 54.3857 47.3536C54.6909 47.7248 55.0268 48.2674 55.3807 48.984C56.8082 51.8751 58.1969 56.9049 59.2002 62.191C60.201 67.4641 60.789 72.8363 60.6771 76.3719C60.6493 77.2512 60.5788 77.9894 60.4694 78.5694C60.3784 79.0515 60.2717 79.3618 60.181 79.543C60.0898 79.4798 59.9573 79.3725 59.7821 79.1917C52.071 71.2336 40.6921 67.4755 33.8413 65.3446C31.9627 64.7603 30.2433 64.8061 28.9117 64.8455L28.8694 64.8468C28.2006 64.8666 27.6747 64.8821 27.2164 64.8427C26.7584 64.8034 26.4737 64.7152 26.2774 64.5934Z" fill="white" fill-opacity="0.886473" stroke="#3038E5" stroke-width="2.24483"/>
<mask id="mask1_3219_77013" style="mask-type:luminance" maskUnits="userSpaceOnUse" x="14" y="45" width="48" height="36">
<path d="M26.2774 64.5934C23.7744 63.0407 21.7966 61.2259 20.2499 59.4315C21.9879 60.5818 24.1306 61.7219 26.7659 62.7493C32.5429 65.0016 37.7505 64.6945 42.2318 62.0455C46.6591 59.4285 50.2255 54.6151 52.983 48.1555C53.2939 47.427 53.5645 47.0701 53.7387 46.9195C53.779 46.8847 53.8074 46.8668 53.8236 46.8581C53.8892 46.8814 54.0838 46.9865 54.3857 47.3536C54.6909 47.7248 55.0268 48.2674 55.3807 48.984C56.8082 51.8751 58.1969 56.9049 59.2002 62.191C60.201 67.4641 60.789 72.8363 60.6771 76.3719C60.6493 77.2512 60.5788 77.9894 60.4694 78.5694C60.3784 79.0515 60.2717 79.3618 60.181 79.543C60.0898 79.4798 59.9573 79.3725 59.7821 79.1917C52.071 71.2336 40.6921 67.4755 33.8413 65.3446C31.9627 64.7603 30.2433 64.8061 28.9117 64.8455L28.8694 64.8468C28.2006 64.8666 27.6747 64.8821 27.2164 64.8427C26.7584 64.8034 26.4737 64.7152 26.2774 64.5934Z" fill="white" stroke="white" stroke-width="2.24483"/>
</mask>
<g mask="url(#mask1_3219_77013)">
<rect opacity="0.183105" x="36.6719" y="-22.5112" width="6.28553" height="199.341" fill="#3038E5"/>
</g>
<path d="M25.0552 140.499C22.5601 138.141 19.7499 135.456 17.1724 132.983C20.1456 134.673 23.623 136.449 27.3636 137.969C27.7463 138.125 28.1333 138.284 28.5232 138.444C30.694 139.335 32.9533 140.263 35.0509 140.836C37.4956 141.503 40.0302 141.78 42.1009 140.69C46.2425 138.509 50.7927 133.811 53.8603 125.336C53.8691 125.335 53.8782 125.334 53.8878 125.333C54.223 125.297 54.7676 125.321 55.5505 125.429C57.0965 125.642 59.2646 126.137 61.8863 126.787C62.9571 127.052 64.0985 127.342 65.2946 127.645C69.9041 128.815 75.3242 130.191 80.6356 131.164C87.2849 132.381 93.9919 133.015 98.8484 131.705C101.306 131.043 103.404 129.852 104.735 127.879C106.07 125.899 106.515 123.308 106.022 120.09C105.188 114.655 105.456 110.778 106.443 108.094C107.41 105.465 109.08 103.932 111.251 103.143C113.48 102.334 116.32 102.282 119.599 102.838C122.866 103.392 126.471 104.532 130.17 106.005C137.568 108.951 145.198 113.17 151.02 116.468C151.605 116.799 152.173 117.122 152.722 117.434C154.883 118.662 156.736 119.716 158.124 120.437C158.982 120.883 159.729 121.238 160.285 121.422C160.532 121.503 160.897 121.606 161.262 121.574C161.459 121.557 161.785 121.489 162.067 121.223C162.377 120.932 162.467 120.565 162.467 120.284V120.196V120.108V120.02V119.933V119.845V119.757V119.669V119.582V119.494V119.407V119.319V119.231V119.144V119.056V118.969V118.881V118.794V118.706V118.619V118.531V118.444V118.357V118.269V118.182V118.095V118.007V117.92V117.833V117.746V117.658V117.571V117.484V117.397V117.31V117.222V117.135V117.048V116.961V116.874V116.787V116.7V116.613V116.526V116.439V116.352V116.265V116.178V116.091V116.005V115.918V115.831V115.744V115.657V115.57V115.484V115.397V114.704V114.012V113.925V113.839V113.752V113.666V113.58V113.493V113.407V113.321V113.234V113.148V113.062V112.976V112.89V112.803V112.717V112.631V112.545V112.459V112.373V112.287V112.201V112.115V112.029V111.943V111.857V111.771V111.685V111.599V111.513V111.427V111.341V111.255V111.169V111.083V110.998V110.912V110.826V110.74V110.655V110.569V110.483V110.398V110.312V110.226V110.141V110.055V109.969V109.884V109.798V109.713V109.627V109.542V109.456V109.371V109.285V109.2V109.115V109.029V108.944V108.858V108.773V108.688V108.602V108.517V108.432V108.347V108.261V108.176V108.091V108.006V107.921V107.835V107.75V107.665V107.58V107.495V107.41V107.325V107.24V107.155V107.07V106.985V106.9V106.815V106.73V106.645V106.56V106.475V106.391V106.306V106.221V106.136V106.051V105.967V105.882V105.797V105.712V105.628V105.543V105.458V105.374V105.289V105.204V105.12V105.035V104.951V104.866V104.782V104.697V104.613V104.528V104.444V104.359V104.275V104.19V104.106V104.022V103.937V103.853V103.769V103.684V103.6V103.516V103.431V103.347V103.263V103.179V103.095V103.01V102.926V102.842V102.758V102.674V102.59V102.506V102.422V102.338V102.254V102.17V102.086V102.002V101.918V101.834V101.75V101.666V101.582V101.498V101.414V101.33V101.247V101.163V101.079V100.995V100.911V100.828V100.744V100.66V100.577V100.493V100.409V100.326V100.242V100.158V100.075V99.9911V99.9075V99.824V99.7404V99.6569V99.5734V99.4899V99.4064V99.323V99.2395V99.1561V99.0727V98.9893V98.9059V98.8226V98.7392V98.6559V98.5726V98.4893V98.406V98.3228V98.2395V98.1563V98.0731V97.9899V97.9067V97.8235V97.7403V97.6572V97.5741V97.491V97.4079V97.3248V97.2418V97.1587V97.0757V96.9927V96.9097V96.8267V96.7437V96.6608V96.5778V96.4949V96.412V96.3291V96.2463V96.1634V96.0806V95.9977V95.9149V95.8321V95.7494V95.6666V95.5838V95.5011V95.4184V95.3357V95.253V95.1703V95.0877V95.005V94.9224V94.8398V94.7572V94.6746V94.5921V94.5095V94.427V94.3445V94.262V94.1795V94.097V94.0145V93.9321V93.8497V93.7673V93.6849V93.6025V93.5201V93.4378V93.3554V93.2731V93.1908V93.1085V93.0262V92.944V92.8617V92.7795V92.6973V92.6151V92.5329V92.4507V92.3685V92.2864V92.2043V92.1222V92.0401V91.958V91.8759V91.7938V91.7118V91.6298V91.5478V91.4658V91.3838V91.3018V91.2199V91.1379V91.056V90.9741V90.8922V90.8103V90.7285V90.6466V90.5648V90.483V90.4012V90.3194V90.2376V90.1558V90.0741V89.9924V89.9106V89.8289V89.7473V89.6656V89.5839V89.5023V89.4206V89.339V89.2574V89.1758V89.0943V89.0127V88.9311V88.8496V88.7681V88.6866V88.6051V88.5236V88.4422V88.3607V88.2793V88.1979V88.1165V88.0351V87.9537V87.8723V87.791V87.7097V87.6283V87.547V87.4657V87.3845V87.3032V87.222V87.1407V87.0595V86.9783V86.8971V86.8159V86.7348V86.6536V86.5725V86.4913V86.4102V86.3291V86.248V86.167V86.0859V86.0049V85.9239V85.8428V85.7618V85.6809V85.5999V85.5189V85.438V85.357V85.2761V85.1952V85.1143V85.0335V84.9526V84.8717V84.7909V84.7101V84.6293V84.5485V84.4677V84.3869V84.3062V84.2254V84.1447V84.064V83.9833V83.9026V83.8219V83.7413V83.6606V83.58V83.4994V83.4187V83.3382V83.2576V83.177V83.0964V83.0159V82.9354V82.8549V82.7744V82.6939V82.6134V82.5329V82.4525V82.372V82.2916V82.2112V82.1308V82.0504V81.9701V81.8897V81.8094V81.729V81.6487V81.5684V81.4881V81.4078V81.3276V81.2473V81.1671V81.0868V81.0066V80.9264V80.8462V80.7661V80.6859V80.6057V80.5256V80.4455V80.3654V80.2853V80.2052V80.1251V77.5694C162.467 60.6488 177.242 52.4044 186.617 55.6274C187.18 55.8207 187.617 56.2046 187.975 56.9389C188.353 57.7146 188.619 58.8403 188.786 60.4161C189.053 62.9468 189.041 66.3374 189.026 70.7304C189.022 71.8281 189.018 72.9884 189.018 74.2135C189.018 83.8424 189.037 95.9177 189.056 107.914C189.094 131.636 189.131 155.049 189.018 158.633C188.933 161.369 187.906 164.566 186.05 168.108C184.2 171.639 181.561 175.446 178.336 179.385C171.886 187.262 163.16 195.584 153.918 203.186C144.678 210.785 134.953 217.637 126.525 222.583C122.309 225.057 118.436 227.043 115.121 228.407C111.776 229.784 109.108 230.481 107.265 230.481C91.2565 230.481 84.5025 221.05 82.6216 217.729C82.1687 216.929 81.7179 216.132 81.2685 215.338C67.3858 190.797 54.877 168.685 25.0552 140.499Z" fill="white" fill-opacity="0.886473" stroke="#3038E5" stroke-width="2.24483"/>
<mask id="mask2_3219_77013" style="mask-type:luminance" maskUnits="userSpaceOnUse" x="7" y="53" width="184" height="179">
<path d="M25.0552 140.499C22.5601 138.141 19.7499 135.456 17.1724 132.983C20.1456 134.673 23.623 136.449 27.3636 137.969C27.7463 138.125 28.1333 138.284 28.5232 138.444C30.694 139.335 32.9533 140.263 35.0509 140.836C37.4956 141.503 40.0302 141.78 42.1009 140.69C46.2425 138.509 50.7927 133.811 53.8603 125.336C53.8691 125.335 53.8782 125.334 53.8878 125.333C54.223 125.297 54.7676 125.321 55.5505 125.429C57.0965 125.642 59.2646 126.137 61.8863 126.787C62.9571 127.052 64.0985 127.342 65.2946 127.645C69.9041 128.815 75.3242 130.191 80.6356 131.164C87.2849 132.381 93.9919 133.015 98.8484 131.705C101.306 131.043 103.404 129.852 104.735 127.879C106.07 125.899 106.515 123.308 106.022 120.09C105.188 114.655 105.456 110.778 106.443 108.094C107.41 105.465 109.08 103.932 111.251 103.143C113.48 102.334 116.32 102.282 119.599 102.838C122.866 103.392 126.471 104.532 130.17 106.005C137.568 108.951 145.198 113.17 151.02 116.468C151.605 116.799 152.173 117.122 152.722 117.434C154.883 118.662 156.736 119.716 158.124 120.437C158.982 120.883 159.729 121.238 160.285 121.422C160.532 121.503 160.897 121.606 161.262 121.574C161.459 121.557 161.785 121.489 162.067 121.223C162.377 120.932 162.467 120.565 162.467 120.284V120.196V120.108V120.02V119.933V119.845V119.757V119.669V119.582V119.494V119.407V119.319V119.231V119.144V119.056V118.969V118.881V118.794V118.706V118.619V118.531V118.444V118.357V118.269V118.182V118.095V118.007V117.92V117.833V117.746V117.658V117.571V117.484V117.397V117.31V117.222V117.135V117.048V116.961V116.874V116.787V116.7V116.613V116.526V116.439V116.352V116.265V116.178V116.091V116.005V115.918V115.831V115.744V115.657V115.57V115.484V115.397V114.704V114.012V113.925V113.839V113.752V113.666V113.58V113.493V113.407V113.321V113.234V113.148V113.062V112.976V112.89V112.803V112.717V112.631V112.545V112.459V112.373V112.287V112.201V112.115V112.029V111.943V111.857V111.771V111.685V111.599V111.513V111.427V111.341V111.255V111.169V111.083V110.998V110.912V110.826V110.74V110.655V110.569V110.483V110.398V110.312V110.226V110.141V110.055V109.969V109.884V109.798V109.713V109.627V109.542V109.456V109.371V109.285V109.2V109.115V109.029V108.944V108.858V108.773V108.688V108.602V108.517V108.432V108.347V108.261V108.176V108.091V108.006V107.921V107.835V107.75V107.665V107.58V107.495V107.41V107.325V107.24V107.155V107.07V106.985V106.9V106.815V106.73V106.645V106.56V106.475V106.391V106.306V106.221V106.136V106.051V105.967V105.882V105.797V105.712V105.628V105.543V105.458V105.374V105.289V105.204V105.12V105.035V104.951V104.866V104.782V104.697V104.613V104.528V104.444V104.359V104.275V104.19V104.106V104.022V103.937V103.853V103.769V103.684V103.6V103.516V103.431V103.347V103.263V103.179V103.095V103.01V102.926V102.842V102.758V102.674V102.59V102.506V102.422V102.338V102.254V102.17V102.086V102.002V101.918V101.834V101.75V101.666V101.582V101.498V101.414V101.33V101.247V101.163V101.079V100.995V100.911V100.828V100.744V100.66V100.577V100.493V100.409V100.326V100.242V100.158V100.075V99.9911V99.9075V99.824V99.7404V99.6569V99.5734V99.4899V99.4064V99.323V99.2395V99.1561V99.0727V98.9893V98.9059V98.8226V98.7392V98.6559V98.5726V98.4893V98.406V98.3228V98.2395V98.1563V98.0731V97.9899V97.9067V97.8235V97.7403V97.6572V97.5741V97.491V97.4079V97.3248V97.2418V97.1587V97.0757V96.9927V96.9097V96.8267V96.7437V96.6608V96.5778V96.4949V96.412V96.3291V96.2463V96.1634V96.0806V95.9977V95.9149V95.8321V95.7494V95.6666V95.5838V95.5011V95.4184V95.3357V95.253V95.1703V95.0877V95.005V94.9224V94.8398V94.7572V94.6746V94.5921V94.5095V94.427V94.3445V94.262V94.1795V94.097V94.0145V93.9321V93.8497V93.7673V93.6849V93.6025V93.5201V93.4378V93.3554V93.2731V93.1908V93.1085V93.0262V92.944V92.8617V92.7795V92.6973V92.6151V92.5329V92.4507V92.3685V92.2864V92.2043V92.1222V92.0401V91.958V91.8759V91.7938V91.7118V91.6298V91.5478V91.4658V91.3838V91.3018V91.2199V91.1379V91.056V90.9741V90.8922V90.8103V90.7285V90.6466V90.5648V90.483V90.4012V90.3194V90.2376V90.1558V90.0741V89.9924V89.9106V89.8289V89.7473V89.6656V89.5839V89.5023V89.4206V89.339V89.2574V89.1758V89.0943V89.0127V88.9311V88.8496V88.7681V88.6866V88.6051V88.5236V88.4422V88.3607V88.2793V88.1979V88.1165V88.0351V87.9537V87.8723V87.791V87.7097V87.6283V87.547V87.4657V87.3845V87.3032V87.222V87.1407V87.0595V86.9783V86.8971V86.8159V86.7348V86.6536V86.5725V86.4913V86.4102V86.3291V86.248V86.167V86.0859V86.0049V85.9239V85.8428V85.7618V85.6809V85.5999V85.5189V85.438V85.357V85.2761V85.1952V85.1143V85.0335V84.9526V84.8717V84.7909V84.7101V84.6293V84.5485V84.4677V84.3869V84.3062V84.2254V84.1447V84.064V83.9833V83.9026V83.8219V83.7413V83.6606V83.58V83.4994V83.4187V83.3382V83.2576V83.177V83.0964V83.0159V82.9354V82.8549V82.7744V82.6939V82.6134V82.5329V82.4525V82.372V82.2916V82.2112V82.1308V82.0504V81.9701V81.8897V81.8094V81.729V81.6487V81.5684V81.4881V81.4078V81.3276V81.2473V81.1671V81.0868V81.0066V80.9264V80.8462V80.7661V80.6859V80.6057V80.5256V80.4455V80.3654V80.2853V80.2052V80.1251V77.5694C162.467 60.6488 177.242 52.4044 186.617 55.6274C187.18 55.8207 187.617 56.2046 187.975 56.9389C188.353 57.7146 188.619 58.8403 188.786 60.4161C189.053 62.9468 189.041 66.3374 189.026 70.7304C189.022 71.8281 189.018 72.9884 189.018 74.2135C189.018 83.8424 189.037 95.9177 189.056 107.914C189.094 131.636 189.131 155.049 189.018 158.633C188.933 161.369 187.906 164.566 186.05 168.108C184.2 171.639 181.561 175.446 178.336 179.385C171.886 187.262 163.16 195.584 153.918 203.186C144.678 210.785 134.953 217.637 126.525 222.583C122.309 225.057 118.436 227.043 115.121 228.407C111.776 229.784 109.108 230.481 107.265 230.481C91.2565 230.481 84.5025 221.05 82.6216 217.729C82.1687 216.929 81.7179 216.132 81.2685 215.338C67.3858 190.797 54.877 168.685 25.0552 140.499Z" fill="white" stroke="white" stroke-width="2.24483"/>
</mask>
<g mask="url(#mask2_3219_77013)">
<path opacity="0.183105" fill-rule="evenodd" clip-rule="evenodd" d="M42.9551 167.85H138.136V178.625L42.9551 184.565V167.85Z" fill="#3038E5"/>
<path opacity="0.183105" fill-rule="evenodd" clip-rule="evenodd" d="M36.6679 -22.5112H42.9534V176.83L32.1406 176.208L36.6679 -22.5112Z" fill="#3038E5"/>
</g>
<path d="M23.9231 101.112C18.7885 98.0457 16.2051 94.1247 14.8962 90.95C17.0944 93.0704 20.6184 95.5448 26.264 97.9551C27.7022 98.569 29.2188 99.3418 30.7905 100.158C30.9946 100.264 31.1997 100.371 31.4056 100.478C32.7719 101.189 34.1729 101.918 35.551 102.563C38.6579 104.017 41.9624 105.205 44.8363 104.631C52.754 103.051 56.5913 96.2121 59.7864 88.7147C59.978 88.2652 60.1467 87.9413 60.2869 87.7149C60.4292 88.0466 60.5757 88.5155 60.7154 89.1269C61.3546 91.9243 61.6653 96.8356 61.571 101.986C61.4768 107.131 60.9813 112.357 60.0742 115.781C59.849 116.631 59.6052 117.343 59.3488 117.903C59.0867 118.475 58.8414 118.82 58.6459 119.002C58.5541 119.087 58.492 119.118 58.4633 119.129C58.4408 119.138 58.4283 119.138 58.4105 119.136C58.361 119.13 58.1462 119.076 57.7688 118.685C50.1499 110.809 41.6568 106.229 34.8267 103.795C34.6127 103.719 34.3518 103.622 34.0524 103.511C32.6356 102.984 30.3575 102.137 28.1138 101.653C27.2009 101.456 26.2538 101.378 25.4954 101.316C25.419 101.31 25.3446 101.304 25.2723 101.298C24.8596 101.263 24.5286 101.232 24.2653 101.189C24.0474 101.153 23.9511 101.12 23.9261 101.112C23.9178 101.109 23.9174 101.109 23.9231 101.112Z" fill="#D9DAFA" stroke="#3038E5" stroke-width="2.24483"/>
<mask id="mask3_3219_77013" style="mask-type:luminance" maskUnits="userSpaceOnUse" x="12" y="85" width="51" height="36">
<path d="M23.9231 101.112C18.7885 98.0457 16.2051 94.1247 14.8962 90.95C17.0944 93.0704 20.6184 95.5448 26.264 97.9551C27.7022 98.569 29.2188 99.3418 30.7905 100.158C30.9946 100.264 31.1997 100.371 31.4056 100.478C32.7719 101.189 34.1729 101.918 35.551 102.563C38.6579 104.017 41.9624 105.205 44.8363 104.631C52.754 103.051 56.5913 96.2121 59.7864 88.7147C59.978 88.2652 60.1467 87.9413 60.2869 87.7149C60.4292 88.0466 60.5757 88.5155 60.7154 89.1269C61.3546 91.9243 61.6653 96.8356 61.571 101.986C61.4768 107.131 60.9813 112.357 60.0742 115.781C59.849 116.631 59.6052 117.343 59.3488 117.903C59.0867 118.475 58.8414 118.82 58.6459 119.002C58.5541 119.087 58.492 119.118 58.4633 119.129C58.4408 119.138 58.4283 119.138 58.4105 119.136C58.361 119.13 58.1462 119.076 57.7688 118.685C50.1499 110.809 41.6568 106.229 34.8267 103.795C34.6127 103.719 34.3518 103.622 34.0524 103.511C32.6356 102.984 30.3575 102.137 28.1138 101.653C27.2009 101.456 26.2538 101.378 25.4954 101.316C25.419 101.31 25.3446 101.304 25.2723 101.298C24.8596 101.263 24.5286 101.232 24.2653 101.189C24.0474 101.153 23.9511 101.12 23.9261 101.112C23.9178 101.109 23.9174 101.109 23.9231 101.112Z" fill="white" stroke="white" stroke-width="2.24483"/>
</mask>
<g mask="url(#mask3_3219_77013)">
<rect opacity="0.183105" x="36.6699" y="-22.5117" width="6.28553" height="199.341" fill="#3038E5"/>
</g>
<rect x="42.9551" y="-71" width="123.915" height="242.442" rx="12.8404" fill="white" stroke="#3038E5" stroke-width="2.24483"/>
<mask id="mask4_3219_77013" style="mask-type:luminance" maskUnits="userSpaceOnUse" x="41" y="-73" width="127" height="246">
<rect x="42.9551" y="-71" width="123.915" height="242.442" rx="12.8404" fill="white" stroke="white" stroke-width="2.24483"/>
</mask>
<g mask="url(#mask4_3219_77013)">
<rect x="62.7109" y="9.81396" width="82.6098" height="59.2635" rx="5.38759" fill="#FCFCFF" stroke="#3038E5" stroke-width="2.24483"/>
<rect x="62.7109" y="78.9551" width="82.6098" height="26.04" rx="5.38759" fill="white" stroke="#3038E5" stroke-width="2.24483"/>
<rect opacity="0.451125" x="65.4043" y="98.436" width="77.2222" height="4.48966" rx="2.24483" fill="#D9DAFA"/>
<path d="M93.8278 95.2468C95.4027 95.2468 96.5251 94.3598 96.5251 93.0564C96.5251 92.106 95.8553 91.6625 94.8777 91.2914C94.0088 90.9475 93.8188 90.857 93.8188 90.6036C93.8188 90.3501 94.0812 90.151 94.5066 90.151C95.1493 90.151 95.7014 90.4316 96.1811 90.8479L97.2673 89.6351C96.6608 89.0558 95.7829 88.6938 94.6696 88.6938C93.1218 88.6938 91.9814 89.5898 91.9814 90.8479C91.9814 91.7802 92.624 92.2147 93.6287 92.5948C94.5157 92.9388 94.6877 93.0655 94.6877 93.3099C94.6877 93.5995 94.389 93.7805 93.9726 93.7805C93.2757 93.7805 92.6331 93.4909 92.0176 92.9207L90.8862 94.0882C91.565 94.8214 92.5878 95.2468 93.8278 95.2468ZM96.8195 95.1382H101.942L102.341 93.6447H98.9556L99.2271 92.6401H102.25L102.621 91.2552H99.5982L99.8607 90.2958H103.192L103.599 88.8024H98.5211L96.8195 95.1382ZM102.874 95.1382H104.621L105.599 91.4906L107.309 95.1382H108.848L110.55 88.8024H108.803L107.852 92.3233L106.214 88.8024H104.576L102.874 95.1382ZM109.945 95.1382H112.498C113.964 95.1382 115.059 94.7309 115.82 93.9706C116.498 93.2917 116.861 92.4228 116.861 91.4725C116.861 90.7031 116.643 90.0876 116.173 89.617C115.693 89.1373 114.924 88.8024 113.693 88.8024H111.647L109.945 95.1382ZM112.127 93.5814L112.996 90.3592H113.503C114.118 90.3592 114.507 90.504 114.743 90.7484C114.942 90.9475 115.059 91.2281 115.059 91.6173C115.059 92.1151 114.851 92.6039 114.516 92.9388C114.1 93.3551 113.439 93.5814 112.706 93.5814H112.127Z" fill="#3038E5"/>
<rect x="76.1797" y="29.5688" width="55.6718" height="6.28553" rx="3.14276" fill="#D9DAFA"/>
<rect x="87.8516" y="42.1392" width="32.3256" height="6.28553" rx="3.14276" fill="#D9DAFA"/>
<path opacity="0.183105" fill-rule="evenodd" clip-rule="evenodd" d="M123.177 174.852C116.394 130.641 153.21 121.228 155.058 117.429C160.804 105.613 155.058 91.1655 155.058 77.5689C155.058 59.9848 170.494 51.0582 180.696 54.5654C184.271 55.7944 183.854 62.073 183.854 74.213C183.854 102.854 184.024 153.249 183.854 158.668C183.109 182.446 120.118 224.42 103.565 224.42C87.0122 224.42 81.7548 219.45 77.5586 216.329" fill="#3038E5"/>
</g>
<path fill-rule="evenodd" clip-rule="evenodd" d="M129.463 174.852C122.681 130.641 161.018 123.597 161.344 120.283C162.839 105.1 164.341 92.0298 161.344 77.5689C158.009 61.4727 176.78 51.0581 186.982 54.5654C190.557 55.7944 190.14 62.0729 190.14 74.213C190.14 102.854 190.31 153.249 190.14 158.668C189.395 182.446 126.405 224.42 109.852 224.42" fill="white"/>
<path d="M129.463 174.852C122.681 130.641 161.018 123.597 161.344 120.283C162.839 105.1 164.341 92.0298 161.344 77.5689C158.009 61.4727 176.78 51.0581 186.982 54.5654C190.557 55.7944 190.14 62.0729 190.14 74.213C190.14 102.854 190.31 153.249 190.14 158.668C189.395 182.446 126.405 224.42 109.852 224.42" stroke="#3038E5" stroke-width="2.24483"/>
<path fill-rule="evenodd" clip-rule="evenodd" d="M15.3167 53.765C12.6919 49.3189 13.338 42.2107 17.3699 36.6679C21.4019 31.1251 26.8111 29.7292 30.7218 29.7292C34.6325 29.7292 45.2615 32.8937 49.9215 40.1256C54.5815 47.3576 45.9445 62.4573 36.3467 63.4402C26.7488 64.4231 17.9415 58.2111 15.3167 53.765Z" fill="white" stroke="#3038E5" stroke-width="2.24483"/>
<path fill-rule="evenodd" clip-rule="evenodd" d="M14.0825 90.277C11.4578 85.8309 12.6826 77.7684 16.7145 72.2255C20.7465 66.6827 26.1558 65.2868 30.0664 65.2868C33.9771 65.2868 52.6351 71.8375 57.2951 79.0694C61.9552 86.3013 53.4754 103.134 43.8775 104.117C39.3692 104.578 33.8779 101.311 28.2262 98.5515C21.8459 95.4367 15.4744 92.6346 14.0825 90.277Z" fill="white" stroke="#3038E5" stroke-width="2.24483"/>
<path fill-rule="evenodd" clip-rule="evenodd" d="M9.13329 127.211C6.50853 122.765 7.73335 114.702 11.7653 109.16C15.7973 103.617 21.2065 102.221 25.1172 102.221C29.0279 102.221 47.6859 108.772 52.3459 116.004C57.0059 123.235 48.5261 140.068 38.9283 141.051C34.42 141.513 28.9287 138.245 23.277 135.486C16.8967 132.371 10.5252 129.569 9.13329 127.211Z" fill="white" stroke="#3038E5" stroke-width="2.24483"/>
<path opacity="0.183105" fill-rule="evenodd" clip-rule="evenodd" d="M221.452 189.199L208.309 196.5L206.813 210.727L194.094 204.397L96.9677 258.351C96.9677 258.351 125.392 322.962 193.407 371.546C261.422 420.13 310.875 411.148 310.875 411.148L358.535 223.291C358.535 223.291 318.165 248.919 284.206 240.474C250.247 232.028 221.452 189.199 221.452 189.199Z" fill="#3038E5"/>
<path d="M188.903 162.125C179.095 166.707 157.491 177.361 138.783 190.486C120.158 203.553 103.458 219.733 96.0741 227.22C94.091 229.231 93.8619 232.362 95.4999 234.706L98.1021 238.429L198.769 167.804L196.206 164.136C194.552 161.77 191.49 160.917 188.903 162.125Z" fill="white" stroke="#3038E5" stroke-width="2.24483"/>
<path d="M194.917 166.928C185.811 171.881 166.606 182.768 146.44 196.915C125.827 211.377 106.768 227.451 98.2017 234.876C95.9044 236.867 95.5098 240.261 97.266 242.774L108.933 259.468L214.289 185.553L202.567 168.779C200.831 166.295 197.555 165.494 194.917 166.928Z" fill="white" stroke="#3038E5" stroke-width="2.24483"/>
<path d="M347.558 188.008C346.486 188.786 345.045 189.803 343.285 190.98C339.201 193.709 333.393 197.296 326.49 200.733C312.722 207.588 294.441 213.922 276.776 211.45C261.791 209.353 247.18 200.908 235.386 191.979C223.572 183.034 214.471 173.515 210.498 169.123C209.617 168.149 208.158 167.98 207.105 168.718L199.027 174.386C198.368 174.848 197.976 175.602 197.976 176.407L197.976 187.509C197.976 188.937 196.531 189.926 195.196 189.38C192.796 188.4 187.524 186.238 185.559 185.378C183.487 184.472 178.422 184.275 171.242 189.301C169.704 190.377 167.968 191.583 166.003 192.948C163.011 195.025 159.489 197.471 155.335 200.385C127.863 219.659 102.977 240.367 95.5545 246.639C94.654 247.4 94.4548 248.637 95.0611 249.608C102.453 261.458 137.132 313.081 200.884 349.207C237.099 369.728 267.18 376.457 288.169 378.071C298.666 378.877 306.895 378.405 312.487 377.735C315.283 377.4 317.419 377.015 318.85 376.717C319.459 376.589 319.941 376.478 320.29 376.392L347.558 188.008Z" fill="white" stroke="#3038E5" stroke-width="2.24483"/>
<path fill-rule="evenodd" clip-rule="evenodd" d="M189.322 96.0156C189.322 96.0156 186.592 95.1177 183.91 95.1177C181.229 95.1177 178.547 96.0156 178.547 96.0156V97.8115C178.547 97.8115 181.216 96.9135 183.918 96.9135C186.62 96.9135 189.322 97.8115 189.322 97.8115V96.0156Z" fill="#3038E5"/>
<path fill-rule="evenodd" clip-rule="evenodd" d="M185.736 99.247C185.736 99.247 184.164 98.9819 182.59 98.9819C181.016 98.9819 179.444 99.607 179.444 99.607V101.403C179.444 101.403 181.021 100.778 182.59 100.778C184.159 100.778 185.736 101.043 185.736 101.043V99.247Z" fill="#3038E5"/>
</g>
<defs>
<clipPath id="clip0_3219_77013">
<rect width="300.287" height="469" fill="white" transform="translate(0.855469 -71)"/>
</clipPath>
</defs>
</svg>
