<svg width="284" height="382" viewBox="0 0 284 382" fill="none" xmlns="http://www.w3.org/2000/svg">
<g clip-path="url(#clip0_3219_76996)">
<path d="M78.6422 210.764C76.9336 209.488 75.0333 208.054 73.2326 206.69C75.2484 207.511 77.519 208.324 79.9131 208.982C80.192 209.059 80.4746 209.138 80.7597 209.217C82.3488 209.661 84.0126 210.125 85.5325 210.351C87.3003 210.613 89.1358 210.6 90.5281 209.622C93.2446 207.714 96.0091 204.003 97.4215 197.785C97.6413 197.743 97.992 197.718 98.4961 197.727C99.5834 197.745 101.13 197.908 103.013 198.142C103.781 198.237 104.6 198.344 105.459 198.456C108.772 198.887 112.673 199.395 116.463 199.628C121.201 199.918 125.956 199.794 129.257 198.442C130.931 197.756 132.318 196.719 133.091 195.18C133.866 193.636 133.948 191.741 133.321 189.496C132.271 185.74 132.127 183.001 132.576 181.047C133.015 179.139 134.024 177.945 135.433 177.221C136.886 176.475 138.833 176.195 141.154 176.307C143.465 176.417 146.065 176.911 148.764 177.633C154.164 179.076 159.838 181.397 164.179 183.227C164.615 183.41 165.038 183.589 165.447 183.762C167.059 184.444 168.445 185.031 169.476 185.422C170.113 185.663 170.673 185.853 171.088 185.938C171.269 185.974 171.556 186.021 171.837 185.961C171.99 185.928 172.243 185.842 172.441 185.601C172.657 185.338 172.69 185.038 172.663 184.82L169.021 155.154C169.079 155.238 169.14 155.326 169.203 155.419C169.662 156.095 170.199 156.973 170.803 158.026C173.224 162.244 176.611 169.088 180.069 176.467C183.524 183.838 187.037 191.717 189.708 197.991C191.043 201.128 192.166 203.858 192.964 205.92C193.363 206.952 193.679 207.808 193.898 208.461C194.131 209.154 194.223 209.523 194.233 209.637C194.409 211.554 193.976 213.88 192.993 216.53C192.013 219.171 190.509 222.076 188.606 225.127C184.8 231.229 179.448 237.842 173.672 243.992C167.897 250.141 161.721 255.804 156.284 260.01C153.564 262.114 151.043 263.843 148.859 265.085C146.652 266.341 144.872 267.05 143.616 267.204C132.53 268.565 127.047 262.528 125.462 260.362C125.077 259.836 124.693 259.312 124.311 258.79C112.513 242.658 101.874 228.113 78.6422 210.764ZM97.2399 197.836C97.2388 197.836 97.2466 197.831 97.2666 197.824C97.251 197.833 97.241 197.837 97.2399 197.836ZM168.082 154.044C168.082 154.044 168.083 154.045 168.085 154.046C168.083 154.045 168.082 154.044 168.082 154.044Z" fill="white" fill-opacity="0.886473" stroke="#3038E5" stroke-width="1.82696"/>
<path opacity="0.183105" fill-rule="evenodd" clip-rule="evenodd" d="M86.4225 216.799L149.02 197.975L150.467 205.416L97.2187 222.934L86.4225 216.799Z" fill="#3038E5"/>
<path fill-rule="evenodd" clip-rule="evenodd" d="M39.5899 114.993L16.6706 134.302C14.7436 135.926 13.8267 138.452 14.2643 140.934L28.9991 224.499C30.1287 230.905 36.2375 235.183 42.6436 234.053L193.434 207.465C199.84 206.335 204.117 200.226 202.988 193.82L188.253 110.255C187.815 107.773 186.09 105.713 183.723 104.846L155.582 94.5402" fill="white"/>
<path d="M39.5899 114.993L16.6706 134.302C14.7436 135.926 13.8267 138.452 14.2643 140.934L28.9991 224.499C30.1287 230.905 36.2375 235.183 42.6436 234.053L193.434 207.465C199.84 206.335 204.117 200.226 202.988 193.82L188.253 110.255C187.815 107.773 186.09 105.713 183.723 104.846L155.582 94.5402" stroke="#3038E5" stroke-width="1.82696"/>
<path fill-rule="evenodd" clip-rule="evenodd" d="M46.2145 152.11L30.5989 63.9607C29.9177 60.1154 32.4845 56.4466 36.3303 55.7684L138.404 37.7702C142.245 37.0928 145.909 39.656 146.589 43.4969L161.942 130.156" fill="white"/>
<path d="M46.2145 152.11L30.5989 63.9607C29.9177 60.1154 32.4845 56.4466 36.3303 55.7684L138.404 37.7702C142.245 37.0928 145.909 39.656 146.589 43.4969L161.942 130.156" stroke="#3038E5" stroke-width="1.82696"/>
<path fill-rule="evenodd" clip-rule="evenodd" d="M14.4785 142.145L106.692 170.624Z" fill="white"/>
<path d="M14.4785 142.145L106.692 170.624" stroke="#3038E5" stroke-width="1.82696"/>
<path fill-rule="evenodd" clip-rule="evenodd" d="M188.467 111.466L29.4261 226.917Z" fill="white"/>
<path d="M188.467 111.466L29.4261 226.917" stroke="#3038E5" stroke-width="1.82696"/>
<g filter="url(#filter0_i_3219_76996)">
<path fill-rule="evenodd" clip-rule="evenodd" d="M14.4778 142.144L14.1744 140.424C13.7302 137.905 14.682 135.343 16.6628 133.724L39.5899 114.993L46.0854 151.831L14.4778 142.144Z" fill="#E0E1FB"/>
</g>
<path fill-rule="evenodd" clip-rule="evenodd" d="M14.4778 142.144L14.1744 140.424C13.7302 137.905 14.682 135.343 16.6628 133.724L39.5899 114.993L46.0854 151.831L14.4778 142.144Z" stroke="#3038E5" stroke-width="1.82696"/>
<g filter="url(#filter1_i_3219_76996)">
<path fill-rule="evenodd" clip-rule="evenodd" d="M188.466 111.465L188.163 109.745C187.719 107.226 185.948 105.143 183.533 104.3L155.582 94.5399L161.645 130.881L188.466 111.465Z" fill="#E0E1FB"/>
</g>
<path fill-rule="evenodd" clip-rule="evenodd" d="M188.466 111.465L188.163 109.745C187.719 107.226 185.948 105.143 183.533 104.3L155.582 94.5399L161.645 130.881L188.466 111.465Z" stroke="#3038E5" stroke-width="1.82696"/>
<rect x="66.2793" y="130.587" width="73.0783" height="4.15217" rx="2.07609" transform="rotate(-10 66.2793 130.587)" fill="#D9DAFA"/>
<rect x="71.8398" y="74.5547" width="39.8609" height="4.15217" rx="2.07609" transform="rotate(-10 71.8398 74.5547)" fill="#D9DAFA"/>
<g filter="url(#filter2_i_3219_76996)">
<rect x="54.8047" y="96.7124" width="16.3695" height="22.2158" rx="3.50776" transform="rotate(-10 54.8047 96.7124)" fill="#E0E1FB"/>
</g>
<rect x="54.8047" y="96.7124" width="16.3695" height="22.2158" rx="3.50776" transform="rotate(-10 54.8047 96.7124)" stroke="#3038E5" stroke-width="1.66087"/>
<path d="M65.5244 108.177L64.8968 106.52L66.4239 107.437L66.9211 106.115L65.1612 105.815L66.7098 104.948L65.7977 103.86L64.6766 105.241L64.6862 103.462L63.3236 103.705L63.9513 105.361L62.4242 104.445L61.9325 105.779L63.6925 106.078L62.1439 106.946L63.0504 108.021L64.1771 106.652L64.1619 108.419L65.5244 108.177Z" fill="#3038E5"/>
<g filter="url(#filter3_i_3219_76996)">
<rect x="76.6836" y="92.855" width="16.3695" height="22.2158" rx="3.50776" transform="rotate(-10 76.6836 92.855)" fill="#E0E1FB"/>
</g>
<rect x="76.6836" y="92.855" width="16.3695" height="22.2158" rx="3.50776" transform="rotate(-10 76.6836 92.855)" stroke="#3038E5" stroke-width="1.66087"/>
<path d="M87.9483 104.024L87.3206 102.368L88.8477 103.285L89.3449 101.962L87.585 101.663L89.1336 100.795L88.2215 99.7081L87.1004 101.089L87.11 99.3101L85.7475 99.5528L86.3751 101.209L84.848 100.292L84.3564 101.627L86.1163 101.926L84.5677 102.794L85.4742 103.869L86.6009 102.5L86.5857 104.267L87.9483 104.024Z" fill="#3038E5"/>
<g filter="url(#filter4_i_3219_76996)">
<rect x="98.5605" y="88.9971" width="16.3695" height="22.2158" rx="3.50776" transform="rotate(-10 98.5605 88.9971)" fill="#E0E1FB"/>
</g>
<rect x="98.5605" y="88.9971" width="16.3695" height="22.2158" rx="3.50776" transform="rotate(-10 98.5605 88.9971)" stroke="#3038E5" stroke-width="1.66087"/>
<path d="M109.538 100.702L108.91 99.0462L110.438 99.9631L110.935 98.6404L109.175 98.3412L110.723 97.4736L109.811 96.3863L108.69 97.7672L108.7 95.9883L107.337 96.231L107.965 97.8873L106.438 96.9704L105.946 98.305L107.706 98.6043L106.158 99.4718L107.064 100.547L108.191 99.1782L108.176 100.945L109.538 100.702Z" fill="#3038E5"/>
<g filter="url(#filter5_i_3219_76996)">
<rect x="120.439" y="85.1396" width="16.3695" height="22.2158" rx="3.50776" transform="rotate(-10 120.439 85.1396)" fill="#E0E1FB"/>
</g>
<rect x="120.439" y="85.1396" width="16.3695" height="22.2158" rx="3.50776" transform="rotate(-10 120.439 85.1396)" stroke="#3038E5" stroke-width="1.66087"/>
<path d="M131.13 96.5501L130.502 94.8939L132.029 95.8107L132.527 94.4881L130.767 94.1888L132.315 93.3213L131.403 92.234L130.282 93.6149L130.292 91.836L128.929 92.0787L129.557 93.7349L128.03 92.8181L127.538 94.1527L129.298 94.4519L127.749 95.3195L128.656 96.3948L129.783 95.0259L129.767 96.7928L131.13 96.5501Z" fill="#3038E5"/>
<path opacity="0.183105" fill-rule="evenodd" clip-rule="evenodd" d="M29.4256 226.916L161.645 130.881L159.996 121.525L29.4256 226.916Z" fill="#3038E5"/>
<path opacity="0.183105" fill-rule="evenodd" clip-rule="evenodd" d="M155.961 216.478C155.961 216.478 102.281 231.88 102.281 231.88C100.334 229.255 95.8471 224.852 95.8471 224.852C95.8471 224.852 151.263 215.081 151.011 215.015C148.593 201.84 158.579 194.212 158.402 192.172C157.608 183.004 148.938 176.42 144.038 168.265C137.701 157.719 143.789 146.774 151.203 145.183C153.801 144.625 155.813 148.541 160.188 155.822C170.509 173 188.772 203.163 190.622 206.475" fill="#3038E5"/>
<path fill-rule="evenodd" clip-rule="evenodd" d="M159.647 225.102C150.223 205.854 165.393 191.673 164.494 189.858C159.754 180.287 157.494 173.155 150.343 165.687C142.383 157.374 149.713 144.198 157.097 142.479C159.684 141.877 161.765 145.759 166.268 152.966C176.892 169.968 193.993 198.635 195.902 201.915C204.278 216.308 182.29 264.694 172.42 270.862" fill="white"/>
<path d="M159.647 225.102C150.223 205.854 165.393 191.673 164.494 189.858C159.754 180.287 157.494 173.155 150.343 165.687C142.383 157.374 149.713 144.198 157.097 142.479C159.684 141.877 161.765 145.759 166.268 152.966C176.892 169.968 193.993 198.635 195.902 201.915C204.278 216.308 182.29 264.694 172.42 270.862" stroke="#3038E5" stroke-width="1.82696"/>
<path opacity="0.183105" fill-rule="evenodd" clip-rule="evenodd" d="M218.972 234.858L210.439 241.069L210.614 251.109L201.211 247.786L138.158 293.685C138.158 293.685 163.489 336.268 215.031 364.298C266.574 392.329 300.259 381.841 300.259 381.841L317.395 246.883C317.395 246.883 291.46 268.192 267.079 265.213C242.697 262.234 218.972 234.858 218.972 234.858Z" fill="#3038E5"/>
<path d="M193.878 218.496C187.439 222.526 173.306 231.793 161.403 242.53C149.553 253.219 139.308 265.913 134.805 271.76C133.634 273.281 133.737 275.414 135.04 276.863L137.087 279.141L200.994 221.493L198.978 219.25C197.663 217.787 195.524 217.467 193.878 218.496Z" fill="white" stroke="#3038E5" stroke-width="1.82696"/>
<path d="M197.962 221.637C192.043 225.865 179.598 235.09 166.764 246.668C153.645 258.502 141.744 271.328 136.413 277.232C135.027 278.768 135.04 281.093 136.437 282.647L145.909 293.186L212.802 232.845L203.283 222.254C201.903 220.718 199.623 220.45 197.962 221.637Z" fill="white" stroke="#3038E5" stroke-width="1.82696"/>
<path d="M207.263 221.636L202.12 226.276C201.731 226.627 201.537 227.145 201.601 227.665L202.551 235.401C202.684 236.483 201.681 237.368 200.616 237.078C198.862 236.601 195.002 235.545 193.557 235.114C192.093 234.676 188.592 234.945 184.038 239.044C183.058 239.927 181.951 240.916 180.699 242.034C178.792 243.737 176.549 245.741 173.904 248.127C156.417 263.902 140.853 280.455 136.219 285.459C135.698 286.022 135.67 286.83 136.135 287.405C142.293 295.021 170.854 328.002 218.333 347.706C245.258 358.88 275.711 361.037 299.48 360.384C311.356 360.058 321.544 359.032 328.761 358.087C332.369 357.615 335.234 357.163 337.194 356.829C338.108 356.674 338.825 356.545 339.33 356.451L315.383 219.162C315.312 219.22 315.238 219.279 315.162 219.342C314.23 220.099 312.874 221.179 311.17 222.473C307.764 225.061 302.963 228.507 297.389 231.942C286.287 238.782 271.935 245.692 259.372 245.48C248.721 245.3 237.797 240.654 228.81 235.438C219.804 230.211 212.643 224.352 209.495 221.63C208.845 221.067 207.885 221.075 207.263 221.636Z" fill="white" stroke="#3038E5" stroke-width="1.82696"/>
<path fill-rule="evenodd" clip-rule="evenodd" d="M171.517 168.224C171.517 168.224 169.537 168.878 167.876 169.956C166.215 171.035 164.843 172.559 164.843 172.559L165.421 173.449C165.421 173.449 166.785 171.93 168.459 170.843C170.133 169.756 172.095 169.114 172.095 169.114L171.517 168.224Z" fill="#3038E5"/>
<path fill-rule="evenodd" clip-rule="evenodd" d="M172.062 170.974C172.062 170.974 170.966 171.477 169.964 172.128C168.963 172.778 168.186 173.773 168.186 173.773L168.829 174.763C168.829 174.763 169.609 173.767 170.608 173.118C171.606 172.47 172.705 171.964 172.705 171.964L172.062 170.974Z" fill="#3038E5"/>
</g>
<defs>
<filter id="filter0_i_3219_76996" x="13.1543" y="113.299" width="34.0898" height="39.8423" filterUnits="userSpaceOnUse" color-interpolation-filters="sRGB">
<feFlood flood-opacity="0" result="BackgroundImageFix"/>
<feBlend mode="normal" in="SourceGraphic" in2="BackgroundImageFix" result="shape"/>
<feColorMatrix in="SourceAlpha" type="matrix" values="0 0 0 0 0 0 0 0 0 0 0 0 0 0 0 0 0 0 127 0" result="hardAlpha"/>
<feOffset dx="1.84541" dy="4.61353"/>
<feComposite in2="hardAlpha" operator="arithmetic" k2="-1" k3="1"/>
<feColorMatrix type="matrix" values="0 0 0 0 1 0 0 0 0 1 0 0 0 0 1 0 0 0 1 0"/>
<feBlend mode="normal" in2="shape" result="effect1_innerShadow_3219_76996"/>
</filter>
<filter id="filter1_i_3219_76996" x="154.428" y="93.1689" width="35.0371" height="39.3164" filterUnits="userSpaceOnUse" color-interpolation-filters="sRGB">
<feFlood flood-opacity="0" result="BackgroundImageFix"/>
<feBlend mode="normal" in="SourceGraphic" in2="BackgroundImageFix" result="shape"/>
<feColorMatrix in="SourceAlpha" type="matrix" values="0 0 0 0 0 0 0 0 0 0 0 0 0 0 0 0 0 0 127 0" result="hardAlpha"/>
<feOffset dx="1.84541" dy="4.61353"/>
<feComposite in2="hardAlpha" operator="arithmetic" k2="-1" k3="1"/>
<feColorMatrix type="matrix" values="0 0 0 0 1 0 0 0 0 1 0 0 0 0 1 0 0 0 1 0"/>
<feBlend mode="normal" in2="shape" result="effect1_innerShadow_3219_76996"/>
</filter>
<filter id="filter2_i_3219_76996" x="54.5664" y="93.6318" width="21.2855" height="26.0272" filterUnits="userSpaceOnUse" color-interpolation-filters="sRGB">
<feFlood flood-opacity="0" result="BackgroundImageFix"/>
<feBlend mode="normal" in="SourceGraphic" in2="BackgroundImageFix" result="shape"/>
<feColorMatrix in="SourceAlpha" type="matrix" values="0 0 0 0 0 0 0 0 0 0 0 0 0 0 0 0 0 0 127 0" result="hardAlpha"/>
<feMorphology radius="0.830435" operator="erode" in="SourceAlpha" result="effect1_innerShadow_3219_76996"/>
<feOffset dx="3.69082" dy="3.69082"/>
<feComposite in2="hardAlpha" operator="arithmetic" k2="-1" k3="1"/>
<feColorMatrix type="matrix" values="0 0 0 0 1 0 0 0 0 1 0 0 0 0 1 0 0 0 1 0"/>
<feBlend mode="normal" in2="shape" result="effect1_innerShadow_3219_76996"/>
</filter>
<filter id="filter3_i_3219_76996" x="76.4453" y="89.7744" width="21.2855" height="26.0272" filterUnits="userSpaceOnUse" color-interpolation-filters="sRGB">
<feFlood flood-opacity="0" result="BackgroundImageFix"/>
<feBlend mode="normal" in="SourceGraphic" in2="BackgroundImageFix" result="shape"/>
<feColorMatrix in="SourceAlpha" type="matrix" values="0 0 0 0 0 0 0 0 0 0 0 0 0 0 0 0 0 0 127 0" result="hardAlpha"/>
<feMorphology radius="0.830435" operator="erode" in="SourceAlpha" result="effect1_innerShadow_3219_76996"/>
<feOffset dx="3.69082" dy="3.69082"/>
<feComposite in2="hardAlpha" operator="arithmetic" k2="-1" k3="1"/>
<feColorMatrix type="matrix" values="0 0 0 0 1 0 0 0 0 1 0 0 0 0 1 0 0 0 1 0"/>
<feBlend mode="normal" in2="shape" result="effect1_innerShadow_3219_76996"/>
</filter>
<filter id="filter4_i_3219_76996" x="98.3223" y="85.9165" width="21.2855" height="26.0272" filterUnits="userSpaceOnUse" color-interpolation-filters="sRGB">
<feFlood flood-opacity="0" result="BackgroundImageFix"/>
<feBlend mode="normal" in="SourceGraphic" in2="BackgroundImageFix" result="shape"/>
<feColorMatrix in="SourceAlpha" type="matrix" values="0 0 0 0 0 0 0 0 0 0 0 0 0 0 0 0 0 0 127 0" result="hardAlpha"/>
<feMorphology radius="0.830435" operator="erode" in="SourceAlpha" result="effect1_innerShadow_3219_76996"/>
<feOffset dx="3.69082" dy="3.69082"/>
<feComposite in2="hardAlpha" operator="arithmetic" k2="-1" k3="1"/>
<feColorMatrix type="matrix" values="0 0 0 0 1 0 0 0 0 1 0 0 0 0 1 0 0 0 1 0"/>
<feBlend mode="normal" in2="shape" result="effect1_innerShadow_3219_76996"/>
</filter>
<filter id="filter5_i_3219_76996" x="120.201" y="82.0591" width="21.2855" height="26.0272" filterUnits="userSpaceOnUse" color-interpolation-filters="sRGB">
<feFlood flood-opacity="0" result="BackgroundImageFix"/>
<feBlend mode="normal" in="SourceGraphic" in2="BackgroundImageFix" result="shape"/>
<feColorMatrix in="SourceAlpha" type="matrix" values="0 0 0 0 0 0 0 0 0 0 0 0 0 0 0 0 0 0 127 0" result="hardAlpha"/>
<feMorphology radius="0.830435" operator="erode" in="SourceAlpha" result="effect1_innerShadow_3219_76996"/>
<feOffset dx="3.69082" dy="3.69082"/>
<feComposite in2="hardAlpha" operator="arithmetic" k2="-1" k3="1"/>
<feColorMatrix type="matrix" values="0 0 0 0 1 0 0 0 0 1 0 0 0 0 1 0 0 0 1 0"/>
<feBlend mode="normal" in2="shape" result="effect1_innerShadow_3219_76996"/>
</filter>
<clipPath id="clip0_3219_76996">
<rect width="283.271" height="382" fill="white" transform="translate(0.365234)"/>
</clipPath>
</defs>
</svg>
