<svg width="156" height="172" viewBox="0 0 156 172" fill="none" xmlns="http://www.w3.org/2000/svg">
<path fill-rule="evenodd" clip-rule="evenodd" d="M144.481 15.4837L79.6812 1.08372C79.1664 0.972092 78.6336 0.972092 78.1188 1.08372L13.3188 15.4837C11.6707 15.8501 10.4986 17.3126 10.5 19.0009V91.0009C10.5 128.777 41.1237 159.401 78.9 159.401C116.676 159.401 147.3 128.777 147.3 91.0009V19.0009C147.301 17.3126 146.129 15.8501 144.481 15.4837Z" fill="white" stroke="#3038E5" stroke-width="1.8"/>
<g filter="url(#filter0_i_3219_76958)">
<path fill-rule="evenodd" clip-rule="evenodd" d="M144.291 15.419L79.4908 1.01896C79.2943 1.00279 79.0969 1.00279 78.9004 1.01896V159.325C116.586 159.181 147.07 128.611 147.11 90.9254V18.9254C147.106 17.2411 145.935 15.7844 144.291 15.419Z" fill="#E0E1FB"/>
</g>
<path fill-rule="evenodd" clip-rule="evenodd" d="M144.291 15.419L79.4908 1.01896C79.2943 1.00279 79.0969 1.00279 78.9004 1.01896V159.325C116.586 159.181 147.07 128.611 147.11 90.9254V18.9254C147.106 17.2411 145.935 15.7844 144.291 15.419Z" stroke="#3038E5" stroke-width="1.8"/>
<path opacity="0.183105" fill-rule="evenodd" clip-rule="evenodd" d="M110.22 119.62C110.22 122.305 108.044 124.48 105.36 124.48H53.5202C50.8361 124.48 48.6602 122.305 48.6602 119.62V71.0205C48.6602 67.1435 51.8031 64.0005 55.6802 64.0005H103.2C107.077 64.0005 110.22 67.1434 110.22 71.0205V119.62Z" fill="#3038E5"/>
<path fill-rule="evenodd" clip-rule="evenodd" d="M114.541 112.601C114.541 116.478 111.398 119.621 107.521 119.621H50.8208C46.9437 119.621 43.8008 116.478 43.8008 112.601V66.7007C43.8008 62.8236 46.9437 59.6807 50.8208 59.6807H107.521C111.398 59.6807 114.541 62.8236 114.541 66.7007V112.601Z" fill="white" stroke="#3038E5" stroke-width="1.8"/>
<g filter="url(#filter1_i_3219_76958)">
<path fill-rule="evenodd" clip-rule="evenodd" d="M79.44 26.2007C68.7036 26.2007 60 34.9043 60 45.6407V59.6807H68.1V45.6407C68.1 39.3778 73.1771 34.3007 79.44 34.3007C85.7029 34.3007 90.78 39.3778 90.78 45.6407V59.6807H98.88V45.6407C98.88 34.9043 90.1764 26.2007 79.44 26.2007Z" fill="white"/>
</g>
<path d="M60 59.6807H59.1V60.5807H60V59.6807ZM68.1 59.6807V60.5807H69V59.6807H68.1ZM90.78 59.6807H89.88V60.5807H90.78V59.6807ZM98.88 59.6807V60.5807H99.78V59.6807H98.88ZM60.9 45.6407C60.9 35.4013 69.2006 27.1007 79.44 27.1007V25.3007C68.2065 25.3007 59.1 34.4072 59.1 45.6407H60.9ZM60.9 59.6807V45.6407H59.1V59.6807H60.9ZM68.1 58.7807H60V60.5807H68.1V58.7807ZM69 59.6807V45.6407H67.2V59.6807H69ZM69 45.6407C69 39.8748 73.6741 35.2007 79.44 35.2007V33.4007C72.68 33.4007 67.2 38.8807 67.2 45.6407H69ZM79.44 35.2007C85.2059 35.2007 89.88 39.8748 89.88 45.6407H91.68C91.68 38.8807 86.2 33.4007 79.44 33.4007V35.2007ZM89.88 45.6407V59.6807H91.68V45.6407H89.88ZM98.88 58.7807H90.78V60.5807H98.88V58.7807ZM97.98 45.6407V59.6807H99.78V45.6407H97.98ZM79.44 27.1007C89.6794 27.1007 97.98 35.4013 97.98 45.6407H99.78C99.78 34.4072 90.6735 25.3007 79.44 25.3007V27.1007Z" fill="#3038E5"/>
<g filter="url(#filter2_i_3219_76958)">
<circle cx="78.9826" cy="86.2219" r="9.801" fill="#E0E1FB"/>
</g>
<circle cx="78.9826" cy="86.2219" r="9.801" stroke="#3038E5" stroke-width="1.8"/>
<path fill-rule="evenodd" clip-rule="evenodd" d="M78.9825 96.0767V105.581V96.0767Z" fill="white"/>
<path d="M78.9825 96.0767V105.581" stroke="#3038E5" stroke-width="1.8"/>
<g filter="url(#filter3_i_3219_76958)">
<rect x="33.9004" y="140.501" width="23.4" height="29.7" rx="4.608" fill="#E0E1FB"/>
</g>
<rect x="33.9004" y="140.501" width="23.4" height="29.7" rx="4.608" stroke="#3038E5" stroke-width="1.8"/>
<path d="M45.6572 157.601L45.7993 155.687L46.8793 157.287L47.9735 156.215L46.382 155.115L48.3004 154.973L47.9025 153.487L46.1688 154.33L46.993 152.587L45.5435 152.201L45.4014 154.115L44.3214 152.515L43.2272 153.601L44.8188 154.701L42.9004 154.844L43.2983 156.315L45.032 155.487L44.2078 157.215L45.6572 157.601Z" fill="#3038E5"/>
<g filter="url(#filter4_i_3219_76958)">
<rect x="1.5" y="140.501" width="23.4" height="29.7" rx="4.608" fill="#E0E1FB"/>
</g>
<rect x="1.5" y="140.501" width="23.4" height="29.7" rx="4.608" stroke="#3038E5" stroke-width="1.8"/>
<path d="M13.2568 157.601L13.3989 155.687L14.4789 157.287L15.5732 156.215L13.9816 155.115L15.9 154.973L15.5021 153.487L13.7684 154.33L14.5926 152.587L13.1432 152.201L13.0011 154.115L11.9211 152.515L10.8268 153.601L12.4184 154.701L10.5 154.844L10.8979 156.315L12.6316 155.487L11.8074 157.215L13.2568 157.601Z" fill="#3038E5"/>
<g filter="url(#filter5_i_3219_76958)">
<rect x="66.3008" y="140.501" width="23.4" height="29.7" rx="4.608" fill="#E0E1FB"/>
</g>
<rect x="66.3008" y="140.501" width="23.4" height="29.7" rx="4.608" stroke="#3038E5" stroke-width="1.8"/>
<path d="M78.0576 157.601L78.1997 155.687L79.2797 157.287L80.3739 156.215L78.7824 155.115L80.7008 154.973L80.3029 153.487L78.5692 154.33L79.3934 152.587L77.9439 152.201L77.8018 154.115L76.7218 152.515L75.6276 153.601L77.2192 154.701L75.3008 154.844L75.6987 156.315L77.4324 155.487L76.6081 157.215L78.0576 157.601Z" fill="#3038E5"/>
<g filter="url(#filter6_i_3219_76958)">
<rect x="98.6992" y="140.501" width="23.4" height="29.7" rx="4.608" fill="#E0E1FB"/>
</g>
<rect x="98.6992" y="140.501" width="23.4" height="29.7" rx="4.608" stroke="#3038E5" stroke-width="1.8"/>
<g filter="url(#filter7_i_3219_76958)">
<rect x="131.1" y="140.501" width="23.4" height="29.7" rx="4.608" fill="#E0E1FB"/>
</g>
<rect x="131.1" y="140.501" width="23.4" height="29.7" rx="4.608" stroke="#3038E5" stroke-width="1.8"/>
<path d="M110.456 157.601L110.598 155.687L111.678 157.287L112.772 156.215L111.181 155.115L113.099 154.973L112.701 153.487L110.968 154.33L111.792 152.587L110.342 152.201L110.2 154.115L109.12 152.515L108.026 153.601L109.618 154.701L107.699 154.844L108.097 156.315L109.831 155.487L109.007 157.215L110.456 157.601Z" fill="#3038E5"/>
<path d="M142.856 157.601L142.999 155.687L144.079 157.287L145.173 156.215L143.581 155.115L145.5 154.973L145.102 153.487L143.368 154.33L144.192 152.587L142.743 152.201L142.601 154.115L141.521 152.515L140.426 153.601L142.018 154.701L140.1 154.844L140.498 156.315L142.231 155.487L141.407 157.215L142.856 157.601Z" fill="#3038E5"/>
<defs>
<filter id="filter0_i_3219_76958" x="78" y="0.106934" width="70.0098" height="160.122" filterUnits="userSpaceOnUse" color-interpolation-filters="sRGB">
<feFlood flood-opacity="0" result="BackgroundImageFix"/>
<feBlend mode="normal" in="SourceGraphic" in2="BackgroundImageFix" result="shape"/>
<feColorMatrix in="SourceAlpha" type="matrix" values="0 0 0 0 0 0 0 0 0 0 0 0 0 0 0 0 0 0 127 0" result="hardAlpha"/>
<feOffset dx="2" dy="5"/>
<feComposite in2="hardAlpha" operator="arithmetic" k2="-1" k3="1"/>
<feColorMatrix type="matrix" values="0 0 0 0 1 0 0 0 0 1 0 0 0 0 1 0 0 0 1 0"/>
<feBlend mode="normal" in2="shape" result="effect1_innerShadow_3219_76958"/>
</filter>
<filter id="filter1_i_3219_76958" x="59.0996" y="25.3008" width="40.6797" height="35.2798" filterUnits="userSpaceOnUse" color-interpolation-filters="sRGB">
<feFlood flood-opacity="0" result="BackgroundImageFix"/>
<feBlend mode="normal" in="SourceGraphic" in2="BackgroundImageFix" result="shape"/>
<feColorMatrix in="SourceAlpha" type="matrix" values="0 0 0 0 0 0 0 0 0 0 0 0 0 0 0 0 0 0 127 0" result="hardAlpha"/>
<feOffset dx="-4" dy="-1"/>
<feComposite in2="hardAlpha" operator="arithmetic" k2="-1" k3="1"/>
<feColorMatrix type="matrix" values="0 0 0 0 0.878431 0 0 0 0 0.882353 0 0 0 0 0.984314 0 0 0 1 0"/>
<feBlend mode="normal" in2="shape" result="effect1_innerShadow_3219_76958"/>
</filter>
<filter id="filter2_i_3219_76958" x="68.2812" y="75.521" width="22.3023" height="22.3019" filterUnits="userSpaceOnUse" color-interpolation-filters="sRGB">
<feFlood flood-opacity="0" result="BackgroundImageFix"/>
<feBlend mode="normal" in="SourceGraphic" in2="BackgroundImageFix" result="shape"/>
<feColorMatrix in="SourceAlpha" type="matrix" values="0 0 0 0 0 0 0 0 0 0 0 0 0 0 0 0 0 0 127 0" result="hardAlpha"/>
<feMorphology radius="0.9" operator="erode" in="SourceAlpha" result="effect1_innerShadow_3219_76958"/>
<feOffset dx="2" dy="2"/>
<feComposite in2="hardAlpha" operator="arithmetic" k2="-1" k3="1"/>
<feColorMatrix type="matrix" values="0 0 0 0 1 0 0 0 0 1 0 0 0 0 1 0 0 0 1 0"/>
<feBlend mode="normal" in2="shape" result="effect1_innerShadow_3219_76958"/>
</filter>
<filter id="filter3_i_3219_76958" x="33" y="139.601" width="26.1012" height="32.4" filterUnits="userSpaceOnUse" color-interpolation-filters="sRGB">
<feFlood flood-opacity="0" result="BackgroundImageFix"/>
<feBlend mode="normal" in="SourceGraphic" in2="BackgroundImageFix" result="shape"/>
<feColorMatrix in="SourceAlpha" type="matrix" values="0 0 0 0 0 0 0 0 0 0 0 0 0 0 0 0 0 0 127 0" result="hardAlpha"/>
<feMorphology radius="0.9" operator="erode" in="SourceAlpha" result="effect1_innerShadow_3219_76958"/>
<feOffset dx="3" dy="3"/>
<feComposite in2="hardAlpha" operator="arithmetic" k2="-1" k3="1"/>
<feColorMatrix type="matrix" values="0 0 0 0 1 0 0 0 0 1 0 0 0 0 1 0 0 0 1 0"/>
<feBlend mode="normal" in2="shape" result="effect1_innerShadow_3219_76958"/>
</filter>
<filter id="filter4_i_3219_76958" x="0.599609" y="139.601" width="26.1012" height="32.4" filterUnits="userSpaceOnUse" color-interpolation-filters="sRGB">
<feFlood flood-opacity="0" result="BackgroundImageFix"/>
<feBlend mode="normal" in="SourceGraphic" in2="BackgroundImageFix" result="shape"/>
<feColorMatrix in="SourceAlpha" type="matrix" values="0 0 0 0 0 0 0 0 0 0 0 0 0 0 0 0 0 0 127 0" result="hardAlpha"/>
<feMorphology radius="0.9" operator="erode" in="SourceAlpha" result="effect1_innerShadow_3219_76958"/>
<feOffset dx="3" dy="3"/>
<feComposite in2="hardAlpha" operator="arithmetic" k2="-1" k3="1"/>
<feColorMatrix type="matrix" values="0 0 0 0 1 0 0 0 0 1 0 0 0 0 1 0 0 0 1 0"/>
<feBlend mode="normal" in2="shape" result="effect1_innerShadow_3219_76958"/>
</filter>
<filter id="filter5_i_3219_76958" x="65.4004" y="139.601" width="26.1012" height="32.4" filterUnits="userSpaceOnUse" color-interpolation-filters="sRGB">
<feFlood flood-opacity="0" result="BackgroundImageFix"/>
<feBlend mode="normal" in="SourceGraphic" in2="BackgroundImageFix" result="shape"/>
<feColorMatrix in="SourceAlpha" type="matrix" values="0 0 0 0 0 0 0 0 0 0 0 0 0 0 0 0 0 0 127 0" result="hardAlpha"/>
<feMorphology radius="0.9" operator="erode" in="SourceAlpha" result="effect1_innerShadow_3219_76958"/>
<feOffset dx="3" dy="3"/>
<feComposite in2="hardAlpha" operator="arithmetic" k2="-1" k3="1"/>
<feColorMatrix type="matrix" values="0 0 0 0 1 0 0 0 0 1 0 0 0 0 1 0 0 0 1 0"/>
<feBlend mode="normal" in2="shape" result="effect1_innerShadow_3219_76958"/>
</filter>
<filter id="filter6_i_3219_76958" x="97.7988" y="139.601" width="26.1012" height="32.4" filterUnits="userSpaceOnUse" color-interpolation-filters="sRGB">
<feFlood flood-opacity="0" result="BackgroundImageFix"/>
<feBlend mode="normal" in="SourceGraphic" in2="BackgroundImageFix" result="shape"/>
<feColorMatrix in="SourceAlpha" type="matrix" values="0 0 0 0 0 0 0 0 0 0 0 0 0 0 0 0 0 0 127 0" result="hardAlpha"/>
<feMorphology radius="0.9" operator="erode" in="SourceAlpha" result="effect1_innerShadow_3219_76958"/>
<feOffset dx="3" dy="3"/>
<feComposite in2="hardAlpha" operator="arithmetic" k2="-1" k3="1"/>
<feColorMatrix type="matrix" values="0 0 0 0 1 0 0 0 0 1 0 0 0 0 1 0 0 0 1 0"/>
<feBlend mode="normal" in2="shape" result="effect1_innerShadow_3219_76958"/>
</filter>
<filter id="filter7_i_3219_76958" x="130.199" y="139.601" width="26.1012" height="32.4" filterUnits="userSpaceOnUse" color-interpolation-filters="sRGB">
<feFlood flood-opacity="0" result="BackgroundImageFix"/>
<feBlend mode="normal" in="SourceGraphic" in2="BackgroundImageFix" result="shape"/>
<feColorMatrix in="SourceAlpha" type="matrix" values="0 0 0 0 0 0 0 0 0 0 0 0 0 0 0 0 0 0 127 0" result="hardAlpha"/>
<feMorphology radius="0.9" operator="erode" in="SourceAlpha" result="effect1_innerShadow_3219_76958"/>
<feOffset dx="3" dy="3"/>
<feComposite in2="hardAlpha" operator="arithmetic" k2="-1" k3="1"/>
<feColorMatrix type="matrix" values="0 0 0 0 1 0 0 0 0 1 0 0 0 0 1 0 0 0 1 0"/>
<feBlend mode="normal" in2="shape" result="effect1_innerShadow_3219_76958"/>
</filter>
</defs>
</svg>
