<svg width="16" height="20" viewBox="0 0 16 20" fill="none" xmlns="http://www.w3.org/2000/svg">
<path fill-rule="evenodd" clip-rule="evenodd" d="M11.4409 15.5019C10.4946 15.8813 9.63441 16.1849 8.60215 16.3367L7.82796 19.5999H4.30108L5.07527 16.4125H0L2.92473 3.2837H8.08602L8.68817 0.399902H12.2151L11.5269 3.58725C11.957 3.66314 12.3871 3.81492 12.7312 3.9667C13.7634 4.42204 14.5376 5.10504 15.1398 5.93982C15.7419 6.77461 16 7.68528 16 8.82362C16 10.2655 15.5699 11.6315 14.7957 12.7699C13.9355 13.9841 12.8172 14.8948 11.4409 15.5019ZM4.55922 13.0734L2.32266 13.6805H4.47319H7.39793C8.25814 13.6805 9.03233 13.4528 9.72051 13.0734C10.4087 12.6939 10.9248 12.1627 11.3549 11.4797C11.785 10.7967 11.9571 10.0378 11.9571 9.20304C11.9571 8.29237 11.613 7.53347 11.0108 6.92636C10.4087 6.39513 9.54846 6.09158 8.5162 6.09158H6.27965H4.04309L6.02158 6.69869L4.55922 13.0734Z" fill="#3038E5"/>
</svg>
