<svg width="187" height="218" viewBox="0 0 187 218" fill="none" xmlns="http://www.w3.org/2000/svg">
<g filter="url(#filter0_i_3219_76983)">
<rect x="34.0195" y="187.3" width="23.4" height="29.7" rx="4.608" fill="#E0E1FB"/>
</g>
<rect x="34.0195" y="187.3" width="23.4" height="29.7" rx="4.608" stroke="#3038E5" stroke-width="1.8"/>
<path d="M45.7764 204.4L45.9185 202.486L46.9985 204.086L48.0927 203.014L46.5011 201.914L48.4195 201.771L48.0216 200.286L46.288 201.129L47.1122 199.386L45.6627 199L45.5206 200.914L44.4406 199.314L43.3464 200.4L44.938 201.5L43.0195 201.643L43.4174 203.114L45.1511 202.286L44.3269 204.014L45.7764 204.4Z" fill="#3038E5"/>
<g filter="url(#filter1_i_3219_76983)">
<rect x="1.62109" y="187.3" width="23.4" height="29.7" rx="4.608" fill="#E0E1FB"/>
</g>
<rect x="1.62109" y="187.3" width="23.4" height="29.7" rx="4.608" stroke="#3038E5" stroke-width="1.8"/>
<path d="M13.3779 204.4L13.52 202.486L14.6 204.086L15.6943 203.014L14.1027 201.914L16.0211 201.771L15.6232 200.286L13.8895 201.129L14.7137 199.386L13.2643 199L13.1221 200.914L12.0421 199.314L10.9479 200.4L12.5395 201.5L10.6211 201.643L11.019 203.114L12.7527 202.286L11.9285 204.014L13.3779 204.4Z" fill="#3038E5"/>
<g filter="url(#filter2_i_3219_76983)">
<rect x="66.4219" y="187.3" width="23.4" height="29.7" rx="4.608" fill="#E0E1FB"/>
</g>
<rect x="66.4219" y="187.3" width="23.4" height="29.7" rx="4.608" stroke="#3038E5" stroke-width="1.8"/>
<path d="M78.1787 204.4L78.3208 202.486L79.4008 204.086L80.495 203.014L78.9035 201.914L80.8219 201.771L80.424 200.286L78.6903 201.129L79.5145 199.386L78.065 199L77.9229 200.914L76.8429 199.314L75.7487 200.4L77.3403 201.5L75.4219 201.643L75.8198 203.114L77.5535 202.286L76.7292 204.014L78.1787 204.4Z" fill="#3038E5"/>
<g filter="url(#filter3_i_3219_76983)">
<rect x="98.8203" y="187.3" width="23.4" height="29.7" rx="4.608" fill="#E0E1FB"/>
</g>
<rect x="98.8203" y="187.3" width="23.4" height="29.7" rx="4.608" stroke="#3038E5" stroke-width="1.8"/>
<g filter="url(#filter4_i_3219_76983)">
<rect x="131.223" y="187.3" width="23.4" height="29.7" rx="4.608" fill="#E0E1FB"/>
</g>
<rect x="131.223" y="187.3" width="23.4" height="29.7" rx="4.608" stroke="#3038E5" stroke-width="1.8"/>
<path d="M110.577 204.4L110.719 202.486L111.799 204.086L112.893 203.014L111.302 201.914L113.22 201.771L112.822 200.286L111.089 201.129L111.913 199.386L110.463 199L110.321 200.914L109.241 199.314L108.147 200.4L109.739 201.5L107.82 201.643L108.218 203.114L109.952 202.286L109.128 204.014L110.577 204.4Z" fill="#3038E5"/>
<path d="M142.979 204.4L143.122 202.486L144.202 204.086L145.296 203.014L143.704 201.914L145.623 201.771L145.225 200.286L143.491 201.129L144.315 199.386L142.866 199L142.724 200.914L141.644 199.314L140.549 200.4L142.141 201.5L140.223 201.643L140.621 203.114L142.354 202.286L141.53 204.014L142.979 204.4Z" fill="#3038E5"/>
<path opacity="0.183105" fill-rule="evenodd" clip-rule="evenodd" d="M130.323 156.7C130.323 161.174 126.696 164.8 122.223 164.8H35.8226C31.3491 164.8 27.7227 161.174 27.7227 156.7V75.7C27.7227 69.2383 32.9609 64 39.4227 64H118.623C125.084 64 130.323 69.2383 130.323 75.7V156.7Z" fill="#3038E5"/>
<path fill-rule="evenodd" clip-rule="evenodd" d="M137.521 145C137.521 151.462 132.283 156.7 125.821 156.7H31.3211C24.8594 156.7 19.6211 151.462 19.6211 145V68.4998C19.6211 62.0381 24.8594 56.7998 31.3211 56.7998H125.821C132.283 56.7998 137.521 62.0381 137.521 68.4998V145Z" fill="white" stroke="#3038E5" stroke-width="1.8"/>
<g filter="url(#filter5_i_3219_76983)">
<path fill-rule="evenodd" clip-rule="evenodd" d="M79.0211 1C61.1271 1 46.6211 15.506 46.6211 33.4V56.8H60.1211V33.4C60.1211 22.9618 68.5829 14.5 79.0211 14.5C89.4593 14.5 97.9211 22.9618 97.9211 33.4V56.8H111.421V33.4C111.421 15.506 96.9151 1 79.0211 1Z" fill="#E0E1FB"/>
</g>
<path d="M46.6211 56.8H45.7211V57.7H46.6211V56.8ZM60.1211 56.8V57.7H61.0211V56.8H60.1211ZM97.9211 56.8H97.0211V57.7H97.9211V56.8ZM111.421 56.8V57.7H112.321V56.8H111.421ZM47.5211 33.4C47.5211 16.003 61.6241 1.9 79.0211 1.9V0.1C60.63 0.1 45.7211 15.0089 45.7211 33.4H47.5211ZM47.5211 56.8V33.4H45.7211V56.8H47.5211ZM60.1211 55.9H46.6211V57.7H60.1211V55.9ZM61.0211 56.8V33.4H59.2211V56.8H61.0211ZM61.0211 33.4C61.0211 23.4589 69.08 15.4 79.0211 15.4V13.6C68.0859 13.6 59.2211 22.4648 59.2211 33.4H61.0211ZM79.0211 15.4C88.9622 15.4 97.0211 23.4589 97.0211 33.4H98.8211C98.8211 22.4648 89.9563 13.6 79.0211 13.6V15.4ZM97.0211 33.4V56.8H98.8211V33.4H97.0211ZM111.421 55.9H97.9211V57.7H111.421V55.9ZM110.521 33.4V56.8H112.321V33.4H110.521ZM79.0211 1.9C96.4181 1.9 110.521 16.003 110.521 33.4H112.321C112.321 15.0089 97.4122 0.1 79.0211 0.1V1.9Z" fill="#3038E5"/>
<g filter="url(#filter6_i_3219_76983)">
<circle cx="78.2569" cy="101.035" r="16.335" fill="#E0E1FB"/>
</g>
<circle cx="78.2569" cy="101.035" r="16.335" stroke="#3038E5" stroke-width="1.8"/>
<path fill-rule="evenodd" clip-rule="evenodd" d="M78.2567 117.46V133.3V117.46Z" fill="white"/>
<path d="M78.2567 117.46V133.3" stroke="#3038E5" stroke-width="1.8"/>
<g filter="url(#filter7_i_3219_76983)">
<path fill-rule="evenodd" clip-rule="evenodd" d="M86.0958 93.1263C86.937 92.2852 88.0769 91.8113 89.2664 91.8083L133.781 91.6951C139.001 82.6532 149.643 78.2447 159.728 80.9467C169.813 83.6488 176.825 92.7876 176.825 103.228C176.825 113.669 169.813 122.807 159.728 125.509C149.643 128.211 139.001 123.803 133.781 114.761L126.562 114.662C125.859 114.652 125.187 114.369 124.69 113.871L119.764 108.945C118.709 107.89 117 107.89 115.945 108.945L112.152 112.738C111.098 113.792 109.388 113.792 108.334 112.738L104.541 108.945C103.486 107.89 101.777 107.89 100.723 108.945L97.7141 111.953C97.2077 112.46 96.521 112.744 95.8049 112.744H85.5063L77.9014 105.139C76.847 104.085 76.847 102.375 77.9014 101.321L86.0958 93.1263Z" fill="white"/>
</g>
<path fill-rule="evenodd" clip-rule="evenodd" d="M86.0958 93.1263C86.937 92.2852 88.0769 91.8113 89.2664 91.8083L133.781 91.6951C139.001 82.6532 149.643 78.2447 159.728 80.9467C169.813 83.6488 176.825 92.7876 176.825 103.228C176.825 113.669 169.813 122.807 159.728 125.509C149.643 128.211 139.001 123.803 133.781 114.761L126.562 114.662C125.859 114.652 125.187 114.369 124.69 113.871L119.764 108.945C118.709 107.89 117 107.89 115.945 108.945L112.152 112.738C111.098 113.792 109.388 113.792 108.334 112.738L104.541 108.945C103.486 107.89 101.777 107.89 100.723 108.945L97.7141 111.953C97.2077 112.46 96.521 112.744 95.8049 112.744H85.5063L77.9014 105.139C76.847 104.085 76.847 102.375 77.9014 101.321L86.0958 93.1263Z" stroke="#3038E5" stroke-width="1.8"/>
<g filter="url(#filter8_i_3219_76983)">
<circle cx="8.073" cy="8.073" r="8.073" transform="matrix(0.707107 -0.707107 -0.707107 -0.707107 155.91 114.647)" fill="white"/>
</g>
<circle cx="8.073" cy="8.073" r="8.073" transform="matrix(0.707107 -0.707107 -0.707107 -0.707107 155.91 114.647)" stroke="#3038E5" stroke-width="1.8"/>
<path opacity="0.183105" fill-rule="evenodd" clip-rule="evenodd" d="M85.207 112.935L96.007 117.435L102.307 113.835L110.407 121.935L117.607 116.535L136.507 134.535V118.335L133.807 114.735H125.707L117.607 107.535L110.407 114.735L102.307 107.535L96.007 112.935H85.207Z" fill="#3038E5"/>
<defs>
<filter id="filter0_i_3219_76983" x="33.1211" y="186.4" width="26.0992" height="32.4" filterUnits="userSpaceOnUse" color-interpolation-filters="sRGB">
<feFlood flood-opacity="0" result="BackgroundImageFix"/>
<feBlend mode="normal" in="SourceGraphic" in2="BackgroundImageFix" result="shape"/>
<feColorMatrix in="SourceAlpha" type="matrix" values="0 0 0 0 0 0 0 0 0 0 0 0 0 0 0 0 0 0 127 0" result="hardAlpha"/>
<feMorphology radius="0.9" operator="erode" in="SourceAlpha" result="effect1_innerShadow_3219_76983"/>
<feOffset dx="3" dy="3"/>
<feComposite in2="hardAlpha" operator="arithmetic" k2="-1" k3="1"/>
<feColorMatrix type="matrix" values="0 0 0 0 1 0 0 0 0 1 0 0 0 0 1 0 0 0 1 0"/>
<feBlend mode="normal" in2="shape" result="effect1_innerShadow_3219_76983"/>
</filter>
<filter id="filter1_i_3219_76983" x="0.722656" y="186.4" width="26.0992" height="32.4" filterUnits="userSpaceOnUse" color-interpolation-filters="sRGB">
<feFlood flood-opacity="0" result="BackgroundImageFix"/>
<feBlend mode="normal" in="SourceGraphic" in2="BackgroundImageFix" result="shape"/>
<feColorMatrix in="SourceAlpha" type="matrix" values="0 0 0 0 0 0 0 0 0 0 0 0 0 0 0 0 0 0 127 0" result="hardAlpha"/>
<feMorphology radius="0.9" operator="erode" in="SourceAlpha" result="effect1_innerShadow_3219_76983"/>
<feOffset dx="3" dy="3"/>
<feComposite in2="hardAlpha" operator="arithmetic" k2="-1" k3="1"/>
<feColorMatrix type="matrix" values="0 0 0 0 1 0 0 0 0 1 0 0 0 0 1 0 0 0 1 0"/>
<feBlend mode="normal" in2="shape" result="effect1_innerShadow_3219_76983"/>
</filter>
<filter id="filter2_i_3219_76983" x="65.5234" y="186.4" width="26.0992" height="32.4" filterUnits="userSpaceOnUse" color-interpolation-filters="sRGB">
<feFlood flood-opacity="0" result="BackgroundImageFix"/>
<feBlend mode="normal" in="SourceGraphic" in2="BackgroundImageFix" result="shape"/>
<feColorMatrix in="SourceAlpha" type="matrix" values="0 0 0 0 0 0 0 0 0 0 0 0 0 0 0 0 0 0 127 0" result="hardAlpha"/>
<feMorphology radius="0.9" operator="erode" in="SourceAlpha" result="effect1_innerShadow_3219_76983"/>
<feOffset dx="3" dy="3"/>
<feComposite in2="hardAlpha" operator="arithmetic" k2="-1" k3="1"/>
<feColorMatrix type="matrix" values="0 0 0 0 1 0 0 0 0 1 0 0 0 0 1 0 0 0 1 0"/>
<feBlend mode="normal" in2="shape" result="effect1_innerShadow_3219_76983"/>
</filter>
<filter id="filter3_i_3219_76983" x="97.9219" y="186.4" width="26.0992" height="32.4" filterUnits="userSpaceOnUse" color-interpolation-filters="sRGB">
<feFlood flood-opacity="0" result="BackgroundImageFix"/>
<feBlend mode="normal" in="SourceGraphic" in2="BackgroundImageFix" result="shape"/>
<feColorMatrix in="SourceAlpha" type="matrix" values="0 0 0 0 0 0 0 0 0 0 0 0 0 0 0 0 0 0 127 0" result="hardAlpha"/>
<feMorphology radius="0.9" operator="erode" in="SourceAlpha" result="effect1_innerShadow_3219_76983"/>
<feOffset dx="3" dy="3"/>
<feComposite in2="hardAlpha" operator="arithmetic" k2="-1" k3="1"/>
<feColorMatrix type="matrix" values="0 0 0 0 1 0 0 0 0 1 0 0 0 0 1 0 0 0 1 0"/>
<feBlend mode="normal" in2="shape" result="effect1_innerShadow_3219_76983"/>
</filter>
<filter id="filter4_i_3219_76983" x="130.324" y="186.4" width="26.0992" height="32.4" filterUnits="userSpaceOnUse" color-interpolation-filters="sRGB">
<feFlood flood-opacity="0" result="BackgroundImageFix"/>
<feBlend mode="normal" in="SourceGraphic" in2="BackgroundImageFix" result="shape"/>
<feColorMatrix in="SourceAlpha" type="matrix" values="0 0 0 0 0 0 0 0 0 0 0 0 0 0 0 0 0 0 127 0" result="hardAlpha"/>
<feMorphology radius="0.9" operator="erode" in="SourceAlpha" result="effect1_innerShadow_3219_76983"/>
<feOffset dx="3" dy="3"/>
<feComposite in2="hardAlpha" operator="arithmetic" k2="-1" k3="1"/>
<feColorMatrix type="matrix" values="0 0 0 0 1 0 0 0 0 1 0 0 0 0 1 0 0 0 1 0"/>
<feBlend mode="normal" in2="shape" result="effect1_innerShadow_3219_76983"/>
</filter>
<filter id="filter5_i_3219_76983" x="45.7227" y="0.100098" width="66.5977" height="57.6001" filterUnits="userSpaceOnUse" color-interpolation-filters="sRGB">
<feFlood flood-opacity="0" result="BackgroundImageFix"/>
<feBlend mode="normal" in="SourceGraphic" in2="BackgroundImageFix" result="shape"/>
<feColorMatrix in="SourceAlpha" type="matrix" values="0 0 0 0 0 0 0 0 0 0 0 0 0 0 0 0 0 0 127 0" result="hardAlpha"/>
<feOffset dx="4" dy="3"/>
<feComposite in2="hardAlpha" operator="arithmetic" k2="-1" k3="1"/>
<feColorMatrix type="matrix" values="0 0 0 0 1 0 0 0 0 1 0 0 0 0 1 0 0 0 1 0"/>
<feBlend mode="normal" in2="shape" result="effect1_innerShadow_3219_76983"/>
</filter>
<filter id="filter6_i_3219_76983" x="61.0234" y="83.8003" width="35.3687" height="35.3697" filterUnits="userSpaceOnUse" color-interpolation-filters="sRGB">
<feFlood flood-opacity="0" result="BackgroundImageFix"/>
<feBlend mode="normal" in="SourceGraphic" in2="BackgroundImageFix" result="shape"/>
<feColorMatrix in="SourceAlpha" type="matrix" values="0 0 0 0 0 0 0 0 0 0 0 0 0 0 0 0 0 0 127 0" result="hardAlpha"/>
<feMorphology radius="0.9" operator="erode" in="SourceAlpha" result="effect1_innerShadow_3219_76983"/>
<feOffset dx="3" dy="3"/>
<feComposite in2="hardAlpha" operator="arithmetic" k2="-1" k3="1"/>
<feColorMatrix type="matrix" values="0 0 0 0 1 0 0 0 0 1 0 0 0 0 1 0 0 0 1 0"/>
<feBlend mode="normal" in2="shape" result="effect1_innerShadow_3219_76983"/>
</filter>
<filter id="filter7_i_3219_76983" x="76.2109" y="79.2588" width="101.516" height="47.9385" filterUnits="userSpaceOnUse" color-interpolation-filters="sRGB">
<feFlood flood-opacity="0" result="BackgroundImageFix"/>
<feBlend mode="normal" in="SourceGraphic" in2="BackgroundImageFix" result="shape"/>
<feColorMatrix in="SourceAlpha" type="matrix" values="0 0 0 0 0 0 0 0 0 0 0 0 0 0 0 0 0 0 127 0" result="hardAlpha"/>
<feOffset dx="-4" dy="-3"/>
<feComposite in2="hardAlpha" operator="arithmetic" k2="-1" k3="1"/>
<feColorMatrix type="matrix" values="0 0 0 0 0.878431 0 0 0 0 0.882353 0 0 0 0 0.984314 0 0 0 1 0"/>
<feBlend mode="normal" in2="shape" result="effect1_innerShadow_3219_76983"/>
</filter>
<filter id="filter8_i_3219_76983" x="146.038" y="93.3568" width="18.8453" height="18.8463" filterUnits="userSpaceOnUse" color-interpolation-filters="sRGB">
<feFlood flood-opacity="0" result="BackgroundImageFix"/>
<feBlend mode="normal" in="SourceGraphic" in2="BackgroundImageFix" result="shape"/>
<feColorMatrix in="SourceAlpha" type="matrix" values="0 0 0 0 0 0 0 0 0 0 0 0 0 0 0 0 0 0 127 0" result="hardAlpha"/>
<feMorphology radius="0.9" operator="erode" in="SourceAlpha" result="effect1_innerShadow_3219_76983"/>
<feOffset dx="-4" dy="-3"/>
<feComposite in2="hardAlpha" operator="arithmetic" k2="-1" k3="1"/>
<feColorMatrix type="matrix" values="0 0 0 0 0.878431 0 0 0 0 0.882353 0 0 0 0 0.984314 0 0 0 1 0"/>
<feBlend mode="normal" in2="shape" result="effect1_innerShadow_3219_76983"/>
</filter>
</defs>
</svg>
