<svg width="375" height="457" viewBox="0 0 375 457" fill="none" xmlns="http://www.w3.org/2000/svg">
<path fill-rule="evenodd" clip-rule="evenodd" d="M98.0901 62.2866C98.0323 57.5206 103.485 52.238 109.478 49.8199C115.471 47.4019 120.063 47.7189 123.091 49.4293C126.12 51.1397 145.546 77.3729 145.409 84.8667C145.272 92.3606 146.435 122.76 138.493 119.304C134.763 117.681 107.705 79.2681 104.757 74.7149C101.43 69.5746 98.1413 66.5147 98.0901 62.2866Z" fill="white" stroke="#3038E5" stroke-width="2.1156"/>
<mask id="mask0_1813_999" style="mask-type:luminance" maskUnits="userSpaceOnUse" x="97" y="47" width="50" height="74">
<path fill-rule="evenodd" clip-rule="evenodd" d="M98.0901 62.2866C98.0323 57.5206 103.485 52.238 109.478 49.8199C115.471 47.4019 120.063 47.7189 123.091 49.4293C126.12 51.1397 145.546 77.3729 145.409 84.8667C145.272 92.3606 146.435 122.76 138.493 119.304C134.763 117.681 107.705 79.2681 104.757 74.7149C101.43 69.5746 98.1413 66.5147 98.0901 62.2866Z" fill="white" stroke="white" stroke-width="2.1156"/>
</mask>
<g mask="url(#mask0_1813_999)">
<path opacity="0.183105" fill-rule="evenodd" clip-rule="evenodd" d="M125.756 47.697H131.68V235.562L121.489 234.976L125.756 47.697Z" fill="#3038E5"/>
</g>
<path d="M115.96 129.787C113.601 128.324 111.738 126.614 110.28 124.923C111.918 126.007 113.937 127.081 116.421 128.049C121.865 130.172 126.773 129.883 130.996 127.386C135.169 124.92 138.53 120.383 141.129 114.296C141.422 113.609 141.677 113.273 141.841 113.131C141.879 113.098 141.905 113.081 141.921 113.073C141.983 113.095 142.166 113.194 142.45 113.54C142.738 113.89 143.055 114.401 143.388 115.077C144.734 117.801 146.042 122.541 146.988 127.523C147.931 132.493 148.485 137.556 148.38 140.888C148.353 141.716 148.287 142.412 148.184 142.959C148.098 143.413 147.998 143.706 147.912 143.876C147.826 143.817 147.701 143.716 147.536 143.545C140.269 136.045 129.545 132.504 123.089 130.495C121.318 129.945 119.698 129.988 118.443 130.025L118.403 130.026C117.773 130.045 117.277 130.059 116.845 130.022C116.414 129.985 116.145 129.902 115.96 129.787Z" fill="white" fill-opacity="0.886473" stroke="#3038E5" stroke-width="2.1156"/>
<mask id="mask1_1813_999" style="mask-type:luminance" maskUnits="userSpaceOnUse" x="104" y="112" width="46" height="34">
<path d="M115.96 129.787C113.601 128.324 111.738 126.614 110.28 124.923C111.918 126.007 113.937 127.081 116.421 128.049C121.865 130.172 126.773 129.883 130.996 127.386C135.169 124.92 138.53 120.383 141.129 114.296C141.422 113.609 141.677 113.273 141.841 113.131C141.879 113.098 141.905 113.081 141.921 113.073C141.983 113.095 142.166 113.194 142.45 113.54C142.738 113.89 143.055 114.401 143.388 115.077C144.734 117.801 146.042 122.541 146.988 127.523C147.931 132.493 148.485 137.556 148.38 140.888C148.353 141.716 148.287 142.412 148.184 142.959C148.098 143.413 147.998 143.706 147.912 143.876C147.826 143.817 147.701 143.716 147.536 143.545C140.269 136.045 129.545 132.504 123.089 130.495C121.318 129.945 119.698 129.988 118.443 130.025L118.403 130.026C117.773 130.045 117.277 130.059 116.845 130.022C116.414 129.985 116.145 129.902 115.96 129.787Z" fill="white" stroke="white" stroke-width="2.1156"/>
</mask>
<g mask="url(#mask1_1813_999)">
<rect opacity="0.183105" x="125.756" y="47.6973" width="5.92367" height="187.865" fill="#3038E5"/>
</g>
<path d="M114.809 201.323C112.457 199.1 109.809 196.57 107.38 194.24C110.182 195.833 113.459 197.506 116.984 198.939C117.345 199.085 117.71 199.235 118.077 199.386C120.123 200.226 122.252 201.101 124.229 201.64C126.533 202.269 128.922 202.531 130.873 201.503C134.776 199.447 139.065 195.02 141.956 187.033C141.964 187.032 141.973 187.031 141.982 187.03C142.298 186.996 142.811 187.018 143.549 187.12C145.006 187.322 147.049 187.788 149.52 188.4C150.529 188.65 151.604 188.923 152.732 189.209C157.076 190.312 162.184 191.609 167.19 192.525C173.456 193.672 179.777 194.27 184.354 193.036C186.67 192.411 188.647 191.289 189.902 189.43C191.16 187.564 191.579 185.122 191.114 182.089C190.328 176.967 190.581 173.313 191.511 170.783C192.422 168.306 193.996 166.861 196.043 166.118C198.143 165.355 200.819 165.306 203.91 165.83C206.988 166.352 210.386 167.427 213.872 168.815C220.845 171.592 228.035 175.567 233.522 178.675C234.073 178.988 234.609 179.292 235.125 179.586C237.162 180.743 238.909 181.736 240.217 182.416C241.025 182.837 241.729 183.171 242.253 183.344C242.487 183.421 242.831 183.518 243.174 183.487C243.36 183.471 243.667 183.407 243.933 183.157C244.225 182.883 244.31 182.536 244.31 182.271V182.189V182.106V182.023V181.941V181.858V181.775V181.693V181.61V181.527V181.445V181.362V181.28V181.197V181.115V181.032V180.95V180.867V180.785V180.702V180.62V180.538V180.455V180.373V180.291V180.208V180.126V180.044V179.962V179.879V179.797V179.715V179.633V179.551V179.469V179.386V179.304V179.222V179.14V179.058V178.976V178.894V178.812V178.73V178.648V178.566V178.484V178.402V178.32V178.239V178.157V178.075V177.993V177.911V177.83V177.748V177.666V177.584V177.503V177.421V177.339V177.258V177.176V177.094V177.013V176.931V176.85V176.768V176.686V176.605V176.523V176.442V176.36V176.279V176.198V176.116V176.035V175.953V175.872V175.791V175.709V175.628V175.547V175.465V175.384V175.303V175.222V175.141V175.059V174.978V174.897V174.816V174.735V174.654V174.573V174.492V174.41V174.329V174.248V174.167V174.086V174.005V173.925V173.844V173.763V173.682V173.601V173.52V173.439V173.358V173.278V173.197V173.116V173.035V172.954V172.874V172.793V172.712V172.632V172.551V172.47V172.39V172.309V172.229V172.148V172.067V171.987V171.906V171.826V171.745V171.665V171.584V171.504V171.423V171.343V171.263V171.182V171.102V171.022V170.941V170.861V170.781V170.7V170.62V170.54V170.46V170.379V170.299V170.219V170.139V170.059V169.979V169.898V169.818V169.738V169.658V169.578V169.498V169.418V169.338V169.258V169.178V169.098V169.018V168.938V168.858V168.779V168.699V168.619V168.539V168.459V168.379V168.3V168.22V168.14V168.06V167.981V167.901V167.821V167.742V167.662V167.582V167.503V167.423V167.343V167.264V167.184V167.105V167.025V166.946V166.866V166.787V166.707V166.628V166.548V166.469V166.389V166.31V166.231V166.151V166.072V165.993V165.913V165.834V165.755V165.675V165.596V165.517V165.438V165.359V165.279V165.2V165.121V165.042V164.963V164.884V164.805V164.725V164.646V164.567V164.488V164.409V164.33V164.251V164.172V164.093V164.014V163.935V163.857V163.778V163.699V163.62V163.541V163.462V163.383V163.305V163.226V163.147V163.068V162.99V162.911V162.832V162.753V162.675V162.596V162.517V162.439V162.36V162.282V162.203V162.124V162.046V161.967V161.889V161.81V161.732V161.653V161.575V161.496V161.418V161.339V161.261V161.183V161.104V161.026V160.948V160.869V160.791V160.713V160.634V160.556V160.478V160.4V160.321V160.243V160.165V160.087V160.009V159.93V159.852V159.774V159.696V159.618V159.54V159.462V159.384V159.306V159.228V159.15V159.072V158.994V158.916V158.838V158.76V158.682V158.604V158.526V158.448V158.37V158.292V158.215V158.137V158.059V157.981V157.903V157.826V157.748V157.67V157.592V157.515V157.437V157.359V157.282V157.204V157.126V157.049V156.971V156.893V156.816V156.738V156.661V156.583V156.506V156.428V156.351V156.273V156.196V156.118V156.041V155.963V155.886V155.809V155.731V155.654V155.576V155.499V155.422V155.344V155.267V155.19V155.113V155.035V154.958V154.881V154.804V154.726V154.649V154.572V154.495V154.418V154.341V154.263V154.186V154.109V154.032V153.955V153.878V153.801V153.724V153.647V153.57V153.493V153.416V153.339V153.262V153.185V153.108V153.031V152.954V152.878V152.801V152.724V152.647V152.57V152.493V152.417V152.34V152.263V152.186V152.11V152.033V151.956V151.879V151.803V151.726V151.649V151.573V151.496V151.419V151.343V151.266V151.19V151.113V151.037V150.96V150.883V150.807V150.73V150.654V150.577V150.501V150.425V150.348V150.272V150.195V150.119V150.042V149.966V149.89V149.813V149.737V149.661V149.584V149.508V149.432V149.356V149.279V149.203V149.127V149.051V148.974V148.898V148.822V148.746V148.67V148.594V148.517V148.441V148.365V148.289V148.213V148.137V148.061V147.985V147.909V147.833V147.757V147.681V147.605V147.529V147.453V147.377V147.301V147.225V147.149V147.073V146.997V146.922V146.846V146.77V146.694V146.618V146.542V146.467V146.391V146.315V146.239V146.164V146.088V146.012V145.936V145.861V145.785V145.709V145.634V145.558V145.482V145.407V145.331V145.256V145.18V145.104V145.029V144.953V144.878V144.802V144.727V144.651V144.576V144.5V144.425V144.349V144.274V144.198V144.123V144.048V143.972V143.897V143.822V143.746V143.671V143.595V143.52V143.445V143.37V143.294V143.219V143.144V143.068V142.993V142.918V142.843V142.768V142.692V142.617V142.542V142.467V142.392V142.317V142.241V142.166V142.091V142.016C244.31 126.07 258.235 118.3 267.07 121.337C267.6 121.52 268.012 121.881 268.349 122.573C268.706 123.304 268.957 124.365 269.114 125.85C269.366 128.235 269.354 131.431 269.34 135.571C269.336 136.605 269.332 137.699 269.332 138.853C269.332 147.928 269.35 159.308 269.368 170.614C269.404 192.97 269.439 215.036 269.333 218.413C269.252 220.992 268.285 224.004 266.535 227.343C264.791 230.671 262.305 234.258 259.265 237.97C253.187 245.394 244.963 253.237 236.253 260.401C227.545 267.563 218.38 274.021 210.437 278.682C206.464 281.013 202.814 282.884 199.689 284.17C196.537 285.467 194.022 286.125 192.286 286.125C177.199 286.125 170.834 277.237 169.061 274.107C168.634 273.353 168.21 272.602 167.786 271.853C154.703 248.725 142.914 227.886 114.809 201.323Z" fill="white" fill-opacity="0.886473" stroke="#3038E5" stroke-width="2.1156"/>
<mask id="mask2_1813_999" style="mask-type:luminance" maskUnits="userSpaceOnUse" x="98" y="119" width="173" height="169">
<path d="M114.809 201.323C112.457 199.1 109.809 196.57 107.38 194.24C110.182 195.833 113.459 197.506 116.984 198.939C117.345 199.085 117.71 199.235 118.077 199.386C120.123 200.226 122.252 201.101 124.229 201.64C126.533 202.269 128.922 202.531 130.873 201.503C134.776 199.447 139.065 195.02 141.956 187.033C141.964 187.032 141.973 187.031 141.982 187.03C142.298 186.996 142.811 187.018 143.549 187.12C145.006 187.322 147.049 187.788 149.52 188.4C150.529 188.65 151.604 188.923 152.732 189.209C157.076 190.312 162.184 191.609 167.19 192.525C173.456 193.672 179.777 194.27 184.354 193.036C186.67 192.411 188.647 191.289 189.902 189.43C191.16 187.564 191.579 185.122 191.114 182.089C190.328 176.967 190.581 173.313 191.511 170.783C192.422 168.306 193.996 166.861 196.043 166.118C198.143 165.355 200.819 165.306 203.91 165.83C206.988 166.352 210.386 167.427 213.872 168.815C220.845 171.592 228.035 175.567 233.522 178.675C234.073 178.988 234.609 179.292 235.125 179.586C237.162 180.743 238.909 181.736 240.217 182.416C241.025 182.837 241.729 183.171 242.253 183.344C242.487 183.421 242.831 183.518 243.174 183.487C243.36 183.471 243.667 183.407 243.933 183.157C244.225 182.883 244.31 182.536 244.31 182.271V182.189V182.106V182.023V181.941V181.858V181.775V181.693V181.61V181.527V181.445V181.362V181.28V181.197V181.115V181.032V180.95V180.867V180.785V180.702V180.62V180.538V180.455V180.373V180.291V180.208V180.126V180.044V179.962V179.879V179.797V179.715V179.633V179.551V179.469V179.386V179.304V179.222V179.14V179.058V178.976V178.894V178.812V178.73V178.648V178.566V178.484V178.402V178.32V178.239V178.157V178.075V177.993V177.911V177.83V177.748V177.666V177.584V177.503V177.421V177.339V177.258V177.176V177.094V177.013V176.931V176.85V176.768V176.686V176.605V176.523V176.442V176.36V176.279V176.198V176.116V176.035V175.953V175.872V175.791V175.709V175.628V175.547V175.465V175.384V175.303V175.222V175.141V175.059V174.978V174.897V174.816V174.735V174.654V174.573V174.492V174.41V174.329V174.248V174.167V174.086V174.005V173.925V173.844V173.763V173.682V173.601V173.52V173.439V173.358V173.278V173.197V173.116V173.035V172.954V172.874V172.793V172.712V172.632V172.551V172.47V172.39V172.309V172.229V172.148V172.067V171.987V171.906V171.826V171.745V171.665V171.584V171.504V171.423V171.343V171.263V171.182V171.102V171.022V170.941V170.861V170.781V170.7V170.62V170.54V170.46V170.379V170.299V170.219V170.139V170.059V169.979V169.898V169.818V169.738V169.658V169.578V169.498V169.418V169.338V169.258V169.178V169.098V169.018V168.938V168.858V168.779V168.699V168.619V168.539V168.459V168.379V168.3V168.22V168.14V168.06V167.981V167.901V167.821V167.742V167.662V167.582V167.503V167.423V167.343V167.264V167.184V167.105V167.025V166.946V166.866V166.787V166.707V166.628V166.548V166.469V166.389V166.31V166.231V166.151V166.072V165.993V165.913V165.834V165.755V165.675V165.596V165.517V165.438V165.359V165.279V165.2V165.121V165.042V164.963V164.884V164.805V164.725V164.646V164.567V164.488V164.409V164.33V164.251V164.172V164.093V164.014V163.935V163.857V163.778V163.699V163.62V163.541V163.462V163.383V163.305V163.226V163.147V163.068V162.99V162.911V162.832V162.753V162.675V162.596V162.517V162.439V162.36V162.282V162.203V162.124V162.046V161.967V161.889V161.81V161.732V161.653V161.575V161.496V161.418V161.339V161.261V161.183V161.104V161.026V160.948V160.869V160.791V160.713V160.634V160.556V160.478V160.4V160.321V160.243V160.165V160.087V160.009V159.93V159.852V159.774V159.696V159.618V159.54V159.462V159.384V159.306V159.228V159.15V159.072V158.994V158.916V158.838V158.76V158.682V158.604V158.526V158.448V158.37V158.292V158.215V158.137V158.059V157.981V157.903V157.826V157.748V157.67V157.592V157.515V157.437V157.359V157.282V157.204V157.126V157.049V156.971V156.893V156.816V156.738V156.661V156.583V156.506V156.428V156.351V156.273V156.196V156.118V156.041V155.963V155.886V155.809V155.731V155.654V155.576V155.499V155.422V155.344V155.267V155.19V155.113V155.035V154.958V154.881V154.804V154.726V154.649V154.572V154.495V154.418V154.341V154.263V154.186V154.109V154.032V153.955V153.878V153.801V153.724V153.647V153.57V153.493V153.416V153.339V153.262V153.185V153.108V153.031V152.954V152.878V152.801V152.724V152.647V152.57V152.493V152.417V152.34V152.263V152.186V152.11V152.033V151.956V151.879V151.803V151.726V151.649V151.573V151.496V151.419V151.343V151.266V151.19V151.113V151.037V150.96V150.883V150.807V150.73V150.654V150.577V150.501V150.425V150.348V150.272V150.195V150.119V150.042V149.966V149.89V149.813V149.737V149.661V149.584V149.508V149.432V149.356V149.279V149.203V149.127V149.051V148.974V148.898V148.822V148.746V148.67V148.594V148.517V148.441V148.365V148.289V148.213V148.137V148.061V147.985V147.909V147.833V147.757V147.681V147.605V147.529V147.453V147.377V147.301V147.225V147.149V147.073V146.997V146.922V146.846V146.77V146.694V146.618V146.542V146.467V146.391V146.315V146.239V146.164V146.088V146.012V145.936V145.861V145.785V145.709V145.634V145.558V145.482V145.407V145.331V145.256V145.18V145.104V145.029V144.953V144.878V144.802V144.727V144.651V144.576V144.5V144.425V144.349V144.274V144.198V144.123V144.048V143.972V143.897V143.822V143.746V143.671V143.595V143.52V143.445V143.37V143.294V143.219V143.144V143.068V142.993V142.918V142.843V142.768V142.692V142.617V142.542V142.467V142.392V142.317V142.241V142.166V142.091V142.016C244.31 126.07 258.235 118.3 267.07 121.337C267.6 121.52 268.012 121.881 268.349 122.573C268.706 123.304 268.957 124.365 269.114 125.85C269.366 128.235 269.354 131.431 269.34 135.571C269.336 136.605 269.332 137.699 269.332 138.853C269.332 147.928 269.35 159.308 269.368 170.614C269.404 192.97 269.439 215.036 269.333 218.413C269.252 220.992 268.285 224.004 266.535 227.343C264.791 230.671 262.305 234.258 259.265 237.97C253.187 245.394 244.963 253.237 236.253 260.401C227.545 267.563 218.38 274.021 210.437 278.682C206.464 281.013 202.814 282.884 199.689 284.17C196.537 285.467 194.022 286.125 192.286 286.125C177.199 286.125 170.834 277.237 169.061 274.107C168.634 273.353 168.21 272.602 167.786 271.853C154.703 248.725 142.914 227.886 114.809 201.323Z" fill="white" stroke="white" stroke-width="2.1156"/>
</mask>
<g mask="url(#mask2_1813_999)">
<path opacity="0.183105" fill-rule="evenodd" clip-rule="evenodd" d="M131.678 227.1H221.379V237.255L131.678 242.853V227.1Z" fill="#3038E5"/>
<path opacity="0.183105" fill-rule="evenodd" clip-rule="evenodd" d="M125.755 47.697H131.679V235.562L121.488 234.976L125.755 47.697Z" fill="#3038E5"/>
</g>
<path d="M113.742 164.204C108.903 161.314 106.468 157.619 105.234 154.627C107.306 156.625 110.627 158.957 115.948 161.228C117.303 161.807 118.733 162.535 120.214 163.304C120.406 163.404 120.599 163.505 120.793 163.606C122.081 164.276 123.401 164.963 124.7 165.571C127.628 166.941 130.742 168.061 133.451 167.52C140.913 166.031 144.529 159.586 147.54 152.52C147.721 152.096 147.88 151.791 148.012 151.578C148.146 151.89 148.284 152.332 148.416 152.909C149.018 155.545 149.311 160.173 149.222 165.027C149.133 169.876 148.666 174.801 147.812 178.028C147.599 178.829 147.37 179.5 147.128 180.028C146.881 180.567 146.65 180.893 146.465 181.063C146.379 181.144 146.32 181.173 146.293 181.183C146.272 181.191 146.26 181.192 146.244 181.19C146.197 181.184 145.995 181.133 145.639 180.765C138.459 173.343 130.455 169.026 124.018 166.733C123.816 166.661 123.57 166.569 123.288 166.464C121.953 165.968 119.806 165.17 117.691 164.713C116.831 164.527 115.938 164.455 115.223 164.396C115.151 164.39 115.081 164.384 115.013 164.379C114.624 164.346 114.312 164.317 114.064 164.276C113.859 164.242 113.768 164.211 113.745 164.203C113.737 164.201 113.736 164.2 113.742 164.204Z" fill="#D9DAFA" stroke="#3038E5" stroke-width="2.1156"/>
<mask id="mask3_1813_999" style="mask-type:luminance" maskUnits="userSpaceOnUse" x="102" y="149" width="49" height="34">
<path d="M113.742 164.204C108.903 161.314 106.468 157.619 105.234 154.627C107.306 156.625 110.627 158.957 115.948 161.228C117.303 161.807 118.733 162.535 120.214 163.304C120.406 163.404 120.599 163.505 120.793 163.606C122.081 164.276 123.401 164.963 124.7 165.571C127.628 166.941 130.742 168.061 133.451 167.52C140.913 166.031 144.529 159.586 147.54 152.52C147.721 152.096 147.88 151.791 148.012 151.578C148.146 151.89 148.284 152.332 148.416 152.909C149.018 155.545 149.311 160.173 149.222 165.027C149.133 169.876 148.666 174.801 147.812 178.028C147.599 178.829 147.37 179.5 147.128 180.028C146.881 180.567 146.65 180.893 146.465 181.063C146.379 181.144 146.32 181.173 146.293 181.183C146.272 181.191 146.26 181.192 146.244 181.19C146.197 181.184 145.995 181.133 145.639 180.765C138.459 173.343 130.455 169.026 124.018 166.733C123.816 166.661 123.57 166.569 123.288 166.464C121.953 165.968 119.806 165.17 117.691 164.713C116.831 164.527 115.938 164.455 115.223 164.396C115.151 164.39 115.081 164.384 115.013 164.379C114.624 164.346 114.312 164.317 114.064 164.276C113.859 164.242 113.768 164.211 113.745 164.203C113.737 164.201 113.736 164.2 113.742 164.204Z" fill="white" stroke="white" stroke-width="2.1156"/>
</mask>
<g mask="url(#mask3_1813_999)">
<rect opacity="0.183105" x="125.755" y="47.697" width="5.92367" height="187.865" fill="#3038E5"/>
</g>
<rect x="131.679" y="2" width="116.781" height="228.485" rx="12.1012" fill="white" stroke="#3038E5" stroke-width="2.1156"/>
<mask id="mask4_1813_999" style="mask-type:luminance" maskUnits="userSpaceOnUse" x="130" y="0" width="120" height="232">
<rect x="131.679" y="2" width="116.781" height="228.485" rx="12.1012" fill="white" stroke="white" stroke-width="2.1156"/>
</mask>
<g mask="url(#mask4_1813_999)">
<rect x="150.296" y="78.1616" width="77.854" height="55.8518" rx="5.07743" fill="#FCFCFF" stroke="#3038E5" stroke-width="2.1156"/>
<rect x="150.296" y="143.322" width="77.854" height="24.5409" rx="5.07743" fill="white" stroke="#3038E5" stroke-width="2.1156"/>
<rect opacity="0.451125" x="152.834" y="161.682" width="72.7766" height="4.23119" rx="2.1156" fill="#D9DAFA"/>
<path d="M181.484 165.168C183.062 165.168 184.187 164.279 184.187 162.973C184.187 162.02 183.516 161.576 182.536 161.204C181.665 160.859 181.475 160.768 181.475 160.514C181.475 160.26 181.738 160.061 182.164 160.061C182.808 160.061 183.362 160.342 183.842 160.759L184.931 159.544C184.323 158.963 183.443 158.6 182.327 158.6C180.776 158.6 179.633 159.498 179.633 160.759C179.633 161.694 180.277 162.129 181.284 162.51C182.173 162.855 182.345 162.982 182.345 163.227C182.345 163.517 182.046 163.699 181.629 163.699C180.93 163.699 180.286 163.408 179.669 162.837L178.535 164.007C179.216 164.742 180.241 165.168 181.484 165.168ZM184.482 165.059H189.617L190.016 163.562H186.623L186.895 162.555H189.925L190.297 161.167H187.267L187.53 160.206H190.869L191.277 158.709H186.188L184.482 165.059ZM190.551 165.059H192.302L193.282 161.403L194.996 165.059H196.538L198.244 158.709H196.493L195.54 162.238L193.898 158.709H192.256L190.551 165.059ZM197.638 165.059H200.197C201.666 165.059 202.764 164.651 203.526 163.889C204.207 163.209 204.569 162.338 204.569 161.385C204.569 160.614 204.352 159.997 203.88 159.525C203.399 159.045 202.628 158.709 201.394 158.709H199.344L197.638 165.059ZM199.825 163.499L200.696 160.269H201.204C201.821 160.269 202.211 160.414 202.447 160.659C202.646 160.859 202.764 161.14 202.764 161.53C202.764 162.029 202.555 162.519 202.22 162.855C201.802 163.272 201.14 163.499 200.405 163.499H199.825Z" fill="#3038E5"/>
<rect x="162.989" y="96.7788" width="52.4668" height="5.92367" rx="2.96184" fill="#D9DAFA"/>
<rect x="163.836" y="56.1594" width="52.4668" height="5.92367" rx="2.96184" fill="#D9DAFA"/>
<rect x="173.99" y="108.626" width="30.4646" height="5.92367" rx="2.96184" fill="#D9DAFA"/>
<circle cx="190.07" cy="17.2324" r="3.38496" fill="white" stroke="#3038E5" stroke-width="1.69248"/>
<path opacity="0.183105" fill-rule="evenodd" clip-rule="evenodd" d="M207.283 233.698C200.891 192.033 235.588 183.162 237.329 179.581C242.744 168.446 237.329 154.83 237.329 142.016C237.329 125.444 251.876 117.031 261.491 120.337C264.86 121.495 264.467 127.412 264.467 138.853C264.467 165.846 264.627 213.339 264.467 218.446C263.765 240.855 204.401 280.413 188.8 280.413C173.2 280.413 168.246 275.729 164.291 272.788" fill="#3038E5"/>
</g>
<path fill-rule="evenodd" clip-rule="evenodd" d="M213.207 233.698C206.815 192.033 242.945 185.394 243.253 182.271C244.662 167.962 246.077 155.644 243.253 142.016C240.11 126.846 257.8 117.031 267.415 120.337C270.784 121.495 270.391 127.412 270.391 138.853C270.391 165.846 270.551 213.339 270.391 218.446C269.689 240.855 210.325 280.413 194.725 280.413" fill="white"/>
<path d="M213.207 233.698C206.815 192.033 242.945 185.394 243.253 182.271C244.662 167.962 246.077 155.644 243.253 142.016C240.11 126.846 257.8 117.031 267.415 120.337C270.784 121.495 270.391 127.412 270.391 138.853C270.391 165.846 270.551 213.339 270.391 218.446C269.689 240.855 210.325 280.413 194.725 280.413" stroke="#3038E5" stroke-width="2.1156"/>
<path fill-rule="evenodd" clip-rule="evenodd" d="M105.631 119.583C103.158 115.393 103.767 108.694 107.567 103.47C111.366 98.2463 116.464 96.9308 120.15 96.9308C123.835 96.9308 133.852 99.9131 138.244 106.729C142.636 113.544 134.496 127.775 125.451 128.701C116.405 129.627 108.105 123.773 105.631 119.583Z" fill="white" stroke="#3038E5" stroke-width="2.1156"/>
<path fill-rule="evenodd" clip-rule="evenodd" d="M104.469 153.992C101.995 149.802 103.149 142.204 106.949 136.98C110.749 131.756 115.847 130.441 119.532 130.441C123.218 130.441 140.802 136.614 145.194 143.43C149.585 150.246 141.594 166.109 132.548 167.035C128.3 167.47 123.124 164.391 117.798 161.79C111.785 158.855 105.78 156.214 104.469 153.992Z" fill="white" stroke="#3038E5" stroke-width="2.1156"/>
<path fill-rule="evenodd" clip-rule="evenodd" d="M99.8036 188.8C97.3299 184.61 98.4842 177.012 102.284 171.788C106.084 166.564 111.182 165.249 114.867 165.249C118.553 165.249 136.137 171.422 140.528 178.238C144.92 185.053 136.929 200.917 127.883 201.843C123.635 202.278 118.459 199.199 113.133 196.598C107.12 193.663 101.115 191.022 99.8036 188.8Z" fill="white" stroke="#3038E5" stroke-width="2.1156"/>
<path opacity="0.183105" fill-rule="evenodd" clip-rule="evenodd" d="M299.898 247.22L287.511 254.101L286.102 267.509L274.115 261.542L182.58 312.391C182.58 312.391 209.368 373.281 273.468 419.068C337.567 464.856 384.173 456.391 384.173 456.391L429.09 279.349C429.09 279.349 391.043 303.502 359.039 295.542C327.035 287.583 299.898 247.22 299.898 247.22Z" fill="#3038E5"/>
<path d="M276.104 223.599C274.546 221.37 271.659 220.565 269.222 221.704C259.978 226.022 239.618 236.063 221.987 248.432C204.434 260.747 188.696 275.995 181.737 283.052C179.868 284.947 179.652 287.897 181.196 290.106L183.648 293.615L278.52 227.056L276.104 223.599Z" fill="white" stroke="#3038E5" stroke-width="2.1156"/>
<path d="M282.099 227.975C280.463 225.634 277.376 224.878 274.89 226.23C266.308 230.898 248.208 241.158 229.203 254.491C209.778 268.12 191.816 283.269 183.742 290.267C181.577 292.143 181.206 295.342 182.861 297.71L193.856 313.443L293.147 243.783L282.099 227.975Z" fill="white" stroke="#3038E5" stroke-width="2.1156"/>
<path d="M391.688 423.941C392.263 423.822 392.716 423.716 393.046 423.636L418.743 246.096C417.734 246.83 416.375 247.789 414.717 248.897C410.868 251.469 405.394 254.85 398.889 258.089C385.913 264.549 368.684 270.519 352.036 268.189C337.914 266.213 324.145 258.254 313.03 249.839C301.896 241.409 293.319 232.438 289.574 228.299C288.744 227.381 287.369 227.221 286.377 227.917L278.763 233.259C278.142 233.694 277.773 234.405 277.773 235.164L277.773 245.627C277.773 246.972 276.412 247.905 275.153 247.39C272.891 246.466 267.923 244.429 266.071 243.619C264.118 242.764 259.345 242.579 252.578 247.316C251.129 248.329 249.492 249.466 247.641 250.752C244.821 252.71 241.502 255.015 237.587 257.761C211.697 275.926 188.243 295.441 181.248 301.353C180.399 302.07 180.212 303.235 180.783 304.151C187.749 315.318 220.432 363.969 280.514 398.015C314.644 417.356 342.993 423.697 362.774 425.218C372.666 425.978 380.422 425.533 385.691 424.901C388.326 424.585 390.34 424.223 391.688 423.941Z" fill="white" stroke="#3038E5" stroke-width="2.1156"/>
<path fill-rule="evenodd" clip-rule="evenodd" d="M269.615 159.4C269.615 159.4 267.042 158.554 264.515 158.554C261.988 158.554 259.46 159.4 259.46 159.4V161.093C259.46 161.093 261.976 160.247 264.522 160.247C267.069 160.247 269.615 161.093 269.615 161.093V159.4Z" fill="#3038E5"/>
<path fill-rule="evenodd" clip-rule="evenodd" d="M266.236 162.446C266.236 162.446 264.755 162.196 263.271 162.196C261.788 162.196 260.306 162.785 260.306 162.785V164.478C260.306 164.478 261.793 163.889 263.271 163.889C264.75 163.889 266.236 164.139 266.236 164.139V162.446Z" fill="#3038E5"/>
</svg>
