<svg width="23" height="23" viewBox="0 0 23 23" fill="none" xmlns="http://www.w3.org/2000/svg">
<path fill-rule="evenodd" clip-rule="evenodd" d="M11.2 0C5.04 0 0 5.04 0 11.2C0 17.36 5.04 22.4 11.2 22.4C17.36 22.4 22.4 17.36 22.4 11.2C22.4 5.04 17.36 0 11.2 0ZM11.2 18.2C10.36 18.2 9.8 17.64 9.8 16.8C9.8 15.96 10.36 15.4 11.2 15.4C12.04 15.4 12.6 15.96 12.6 16.8C12.6 17.64 12.04 18.2 11.2 18.2ZM12.6 12.6C12.6 12.32 12.6 12.18 13.3 11.76C14.14 11.2 15.4 10.36 15.4 8.4C15.4 6.02 13.58 4.2 11.2 4.2C9.66 4.2 8.26 5.04 7.56 6.3L6.86 7.56L9.24 8.96L9.94 7.7C10.22 7.28 10.64 7 11.2 7C12.04 7 12.6 7.56 12.6 8.4C12.6 8.82 12.46 8.96 11.76 9.38C10.92 9.94 9.8 10.78 9.8 12.6V14H12.6V12.6Z" fill="#9397B3"/>
</svg>
