<svg width="350" height="323" viewBox="0 0 350 323" fill="none" xmlns="http://www.w3.org/2000/svg">
<g clip-path="url(#clip0_3219_76861)">
<path fill-rule="evenodd" clip-rule="evenodd" d="M344.996 56.5027C345.05 52.0783 339.989 47.1743 334.425 44.9296C328.861 42.6849 324.599 42.9792 321.787 44.567C318.976 46.1548 300.943 70.5075 301.07 77.4642C301.197 84.4209 300.117 112.642 307.49 109.433C310.953 107.926 336.071 72.267 338.807 68.0401C341.896 63.2682 344.949 60.4276 344.996 56.5027Z" fill="white" stroke="#3038E5" stroke-width="1.98379"/>
<mask id="mask0_3219_76861" style="mask-type:luminance" maskUnits="userSpaceOnUse" x="300" y="42" width="46" height="69">
<path fill-rule="evenodd" clip-rule="evenodd" d="M344.996 56.5027C345.05 52.0783 339.989 47.1743 334.425 44.9296C328.861 42.6849 324.599 42.9792 321.787 44.567C318.976 46.1548 300.943 70.5075 301.07 77.4642C301.197 84.4209 300.117 112.642 307.49 109.433C310.953 107.926 336.071 72.267 338.807 68.0401C341.896 63.2682 344.949 60.4276 344.996 56.5027Z" fill="white" stroke="white" stroke-width="1.98379"/>
</mask>
<g mask="url(#mask0_3219_76861)">
<path opacity="0.183105" fill-rule="evenodd" clip-rule="evenodd" d="M319.14 42.6509H313.374V217.224L323.293 216.68L319.14 42.6509Z" fill="#3038E5"/>
</g>
<path d="M329.039 118.722C331.211 117.371 332.931 115.793 334.279 114.231C332.766 115.231 330.905 116.22 328.622 117.113C323.562 119.092 318.999 118.822 315.073 116.494C311.195 114.195 308.073 109.967 305.659 104.295C305.387 103.655 305.15 103.343 304.999 103.212C304.968 103.185 304.945 103.17 304.931 103.162C304.872 103.185 304.705 103.279 304.448 103.592C304.181 103.918 303.887 104.394 303.578 105.023C302.328 107.561 301.113 111.977 300.235 116.618C299.359 121.248 298.844 125.965 298.942 129.069C298.966 129.841 299.028 130.489 299.124 130.998C299.202 131.412 299.293 131.682 299.371 131.842C299.449 131.786 299.562 131.693 299.708 131.541C306.46 124.552 316.423 121.252 322.42 119.381C324.067 118.867 325.574 118.907 326.74 118.942L326.776 118.943C327.362 118.96 327.822 118.974 328.222 118.939C328.622 118.905 328.869 118.828 329.039 118.722Z" fill="white" fill-opacity="0.886473" stroke="#3038E5" stroke-width="1.98379"/>
<mask id="mask1_3219_76861" style="mask-type:luminance" maskUnits="userSpaceOnUse" x="297" y="102" width="43" height="31">
<path d="M329.039 118.722C331.211 117.371 332.931 115.793 334.279 114.231C332.766 115.231 330.905 116.22 328.622 117.113C323.562 119.092 318.999 118.822 315.073 116.494C311.195 114.195 308.073 109.967 305.659 104.295C305.387 103.655 305.15 103.343 304.999 103.212C304.968 103.185 304.945 103.17 304.931 103.162C304.872 103.185 304.705 103.279 304.448 103.592C304.181 103.918 303.887 104.394 303.578 105.023C302.328 107.561 301.113 111.977 300.235 116.618C299.359 121.248 298.844 125.965 298.942 129.069C298.966 129.841 299.028 130.489 299.124 130.998C299.202 131.412 299.293 131.682 299.371 131.842C299.449 131.786 299.562 131.693 299.708 131.541C306.46 124.552 316.423 121.252 322.42 119.381C324.067 118.867 325.574 118.907 326.74 118.942L326.776 118.943C327.362 118.96 327.822 118.974 328.222 118.939C328.622 118.905 328.869 118.828 329.039 118.722Z" fill="white" stroke="white" stroke-width="1.98379"/>
</mask>
<g mask="url(#mask1_3219_76861)">
<rect opacity="0.183105" width="5.95137" height="174.573" transform="matrix(-1 0 0 1 320.324 42.6514)" fill="#3038E5"/>
</g>
<path d="M329.347 185.031C331.517 182.981 333.959 180.649 336.203 178.496C333.611 179.967 330.586 181.508 327.334 182.83C326.999 182.966 326.66 183.105 326.318 183.245C324.416 184.026 322.436 184.839 320.598 185.341C318.456 185.925 316.233 186.169 314.415 185.212C310.786 183.301 306.799 179.186 304.111 171.764C304.105 171.763 304.099 171.763 304.092 171.762C303.799 171.731 303.323 171.751 302.637 171.846C301.283 172.033 299.384 172.467 297.088 173.035C296.149 173.268 295.149 173.522 294.102 173.787C290.063 174.812 285.314 176.018 280.661 176.869C274.835 177.936 268.958 178.491 264.701 177.344C262.547 176.763 260.707 175.719 259.539 173.989C258.367 172.252 257.977 169.98 258.41 167.16C259.141 162.4 258.905 159.006 258.041 156.657C257.195 154.356 255.734 153.016 253.834 152.326C251.884 151.618 249.398 151.572 246.525 152.059C243.664 152.544 240.506 153.542 237.266 154.832C230.784 157.413 224.1 161.107 219 163.996C218.488 164.286 217.99 164.569 217.51 164.842C215.616 165.918 213.992 166.841 212.776 167.473C212.024 167.864 211.37 168.175 210.882 168.336C210.665 168.407 210.343 168.498 210.022 168.47C209.849 168.454 209.561 168.395 209.312 168.16C209.038 167.904 208.959 167.579 208.959 167.331V167.254V167.177V167.1V167.023V166.946V166.87V166.793V166.716V166.639V166.563V166.486V166.409V166.332V166.256V166.179V166.102V166.026V165.949V165.873V165.796V165.719V165.643V165.566V165.49V165.413V165.337V165.26V165.184V165.108V165.031V164.955V164.878V164.802V164.726V164.649V164.573V164.497V164.421V164.344V164.268V164.192V164.116V164.039V163.963V163.887V163.811V163.735V163.659V163.583V163.507V163.431V163.354V163.278V163.202V163.126V163.05V162.443V161.837V161.761V161.686V161.61V161.534V161.459V161.383V161.308V161.232V161.156V161.081V161.005V160.93V160.854V160.779V160.703V160.628V160.552V160.477V160.402V160.326V160.251V160.175V160.1V160.025V159.949V159.874V159.799V159.724V159.648V159.573V159.498V159.423V159.347V159.272V159.197V159.122V159.047V158.972V158.897V158.822V158.747V158.672V158.596V158.521V158.446V158.371V158.297V158.222V158.147V158.072V157.997V157.922V157.847V157.772V157.697V157.623V148.168V148.095V148.022V147.949V147.876V147.804V147.731V147.658V147.585V147.512V147.439V147.367V147.294V147.221V147.148V147.076V147.003V146.93V146.857V146.785V146.712V146.639V146.567V146.494V146.422V146.349V146.276V146.204V146.131V146.059V145.986V145.914V145.841V145.769V145.696V145.624V145.551V145.479V145.406V145.334V145.262V145.189V145.117V145.044V144.972V144.9V144.827V144.755V144.683V144.611V144.538V144.466V144.394V144.322V144.249V144.177V144.105V144.033V143.961V143.889V143.816V143.744V143.672V143.6V143.528V143.456V143.384V143.312V143.24V143.168V143.096V143.024V142.952V142.88V142.808V142.736V142.664V142.592V142.52V142.448V142.376V142.305V142.233V142.161V142.089V142.017V141.946V141.874V141.802V141.73V141.658V141.587V141.515V141.443V141.372V141.3V141.228V141.157V141.085V141.013V140.942V140.87V140.799V140.727V140.655V140.584V140.512V140.441V140.369V140.298V140.226V140.155V140.083V140.012V139.94V139.869V139.798V139.726V139.655V139.583V139.512V139.441V139.369V139.298V139.227V139.155V139.084V139.013V138.942V138.87V138.799V138.728V138.657V138.585V138.514V138.443V138.372V138.301V138.23V138.159V138.087V138.016V137.945V137.874V137.803V137.732V137.661V137.59V137.519V137.448V137.377V137.306V137.235V137.164V137.093V137.022V136.951V136.88V136.809V136.738V136.668V136.597V136.526V136.455V136.384V136.313V136.243V136.172V136.101V136.03V135.959V135.889V135.818V135.747V135.677V135.606V135.535V135.464V135.394V135.323V135.253V135.182V135.111V135.041V134.97V134.9V134.829V134.758V134.688V134.617V134.547V134.476V134.406V134.335V134.265V134.194V134.124V134.053V133.983V133.913V133.842V133.772V133.701V133.631V133.561V133.49V133.42V133.35V133.279V133.209V133.139V133.068V132.998V132.928V132.858V132.787V132.717V132.156V131.035V130.476V130.406V130.336V130.266V130.196V130.127V130.057V129.987V129.917C208.959 115.102 196.019 107.885 187.812 110.706C187.322 110.875 186.94 111.209 186.627 111.851C186.297 112.529 186.064 113.514 185.918 114.893C185.684 117.11 185.694 120.079 185.708 123.927C185.711 124.888 185.715 125.905 185.715 126.978C185.715 135.412 185.698 145.989 185.681 156.497C185.648 177.275 185.616 197.782 185.714 200.921C185.789 203.316 186.688 206.114 188.314 209.216C189.934 212.309 192.246 215.642 195.071 219.092C200.721 225.991 208.365 233.28 216.463 239.938C224.557 246.594 233.076 252.596 240.46 256.928C244.153 259.094 247.546 260.833 250.45 262.028C253.38 263.234 255.717 263.844 257.329 263.844C271.35 263.844 277.265 255.587 278.912 252.679C279.309 251.978 279.704 251.28 280.097 250.585C292.26 229.089 303.22 209.72 329.347 185.031Z" fill="white" fill-opacity="0.886473" stroke="#3038E5" stroke-width="1.98379"/>
<mask id="mask2_3219_76861" style="mask-type:luminance" maskUnits="userSpaceOnUse" x="184" y="109" width="161" height="156">
<path d="M329.347 185.031C331.517 182.981 333.959 180.649 336.203 178.496C333.611 179.967 330.586 181.508 327.334 182.83C326.999 182.966 326.66 183.105 326.318 183.245C324.416 184.026 322.436 184.839 320.598 185.341C318.456 185.925 316.233 186.169 314.415 185.212C310.786 183.301 306.799 179.186 304.111 171.764C304.105 171.763 304.099 171.763 304.092 171.762C303.799 171.731 303.323 171.751 302.637 171.846C301.283 172.033 299.384 172.467 297.088 173.035C296.149 173.268 295.149 173.522 294.102 173.787C290.063 174.812 285.314 176.018 280.661 176.869C274.835 177.936 268.958 178.491 264.701 177.344C262.547 176.763 260.707 175.719 259.539 173.989C258.367 172.252 257.977 169.98 258.41 167.16C259.141 162.4 258.905 159.006 258.041 156.657C257.195 154.356 255.734 153.016 253.834 152.326C251.884 151.618 249.398 151.572 246.525 152.059C243.664 152.544 240.506 153.542 237.266 154.832C230.784 157.413 224.1 161.107 219 163.996C218.488 164.286 217.99 164.569 217.51 164.842C215.616 165.918 213.992 166.841 212.776 167.473C212.024 167.864 211.37 168.175 210.882 168.336C210.665 168.407 210.343 168.498 210.022 168.47C209.849 168.454 209.561 168.395 209.312 168.16C209.038 167.904 208.959 167.579 208.959 167.331V167.254V167.177V167.1V167.023V166.946V166.87V166.793V166.716V166.639V166.563V166.486V166.409V166.332V166.256V166.179V166.102V166.026V165.949V165.873V165.796V165.719V165.643V165.566V165.49V165.413V165.337V165.26V165.184V165.108V165.031V164.955V164.878V164.802V164.726V164.649V164.573V164.497V164.421V164.344V164.268V164.192V164.116V164.039V163.963V163.887V163.811V163.735V163.659V163.583V163.507V163.431V163.354V163.278V163.202V163.126V163.05V162.443V161.837V161.761V161.686V161.61V161.534V161.459V161.383V161.308V161.232V161.156V161.081V161.005V160.93V160.854V160.779V160.703V160.628V160.552V160.477V160.402V160.326V160.251V160.175V160.1V160.025V159.949V159.874V159.799V159.724V159.648V159.573V159.498V159.423V159.347V159.272V159.197V159.122V159.047V158.972V158.897V158.822V158.747V158.672V158.596V158.521V158.446V158.371V158.297V158.222V158.147V158.072V157.997V157.922V157.847V157.772V157.697V157.623V148.168V148.095V148.022V147.949V147.876V147.804V147.731V147.658V147.585V147.512V147.439V147.367V147.294V147.221V147.148V147.076V147.003V146.93V146.857V146.785V146.712V146.639V146.567V146.494V146.422V146.349V146.276V146.204V146.131V146.059V145.986V145.914V145.841V145.769V145.696V145.624V145.551V145.479V145.406V145.334V145.262V145.189V145.117V145.044V144.972V144.9V144.827V144.755V144.683V144.611V144.538V144.466V144.394V144.322V144.249V144.177V144.105V144.033V143.961V143.889V143.816V143.744V143.672V143.6V143.528V143.456V143.384V143.312V143.24V143.168V143.096V143.024V142.952V142.88V142.808V142.736V142.664V142.592V142.52V142.448V142.376V142.305V142.233V142.161V142.089V142.017V141.946V141.874V141.802V141.73V141.658V141.587V141.515V141.443V141.372V141.3V141.228V141.157V141.085V141.013V140.942V140.87V140.799V140.727V140.655V140.584V140.512V140.441V140.369V140.298V140.226V140.155V140.083V140.012V139.94V139.869V139.798V139.726V139.655V139.583V139.512V139.441V139.369V139.298V139.227V139.155V139.084V139.013V138.942V138.87V138.799V138.728V138.657V138.585V138.514V138.443V138.372V138.301V138.23V138.159V138.087V138.016V137.945V137.874V137.803V137.732V137.661V137.59V137.519V137.448V137.377V137.306V137.235V137.164V137.093V137.022V136.951V136.88V136.809V136.738V136.668V136.597V136.526V136.455V136.384V136.313V136.243V136.172V136.101V136.03V135.959V135.889V135.818V135.747V135.677V135.606V135.535V135.464V135.394V135.323V135.253V135.182V135.111V135.041V134.97V134.9V134.829V134.758V134.688V134.617V134.547V134.476V134.406V134.335V134.265V134.194V134.124V134.053V133.983V133.913V133.842V133.772V133.701V133.631V133.561V133.49V133.42V133.35V133.279V133.209V133.139V133.068V132.998V132.928V132.858V132.787V132.717V132.156V131.035V130.476V130.406V130.336V130.266V130.196V130.127V130.057V129.987V129.917C208.959 115.102 196.019 107.885 187.812 110.706C187.322 110.875 186.94 111.209 186.627 111.851C186.297 112.529 186.064 113.514 185.918 114.893C185.684 117.11 185.694 120.079 185.708 123.927C185.711 124.888 185.715 125.905 185.715 126.978C185.715 135.412 185.698 145.989 185.681 156.497C185.648 177.275 185.616 197.782 185.714 200.921C185.789 203.316 186.688 206.114 188.314 209.216C189.934 212.309 192.246 215.642 195.071 219.092C200.721 225.991 208.365 233.28 216.463 239.938C224.557 246.594 233.076 252.596 240.46 256.928C244.153 259.094 247.546 260.833 250.45 262.028C253.38 263.234 255.717 263.844 257.329 263.844C271.35 263.844 277.265 255.587 278.912 252.679C279.309 251.978 279.704 251.28 280.097 250.585C292.26 229.089 303.22 209.72 329.347 185.031Z" fill="white" stroke="white" stroke-width="1.98379"/>
</mask>
<g mask="url(#mask2_3219_76861)">
<path opacity="0.183105" fill-rule="evenodd" clip-rule="evenodd" d="M313.777 209.291H230.458V218.882L313.777 224.169V209.291Z" fill="#3038E5"/>
<path opacity="0.183105" fill-rule="evenodd" clip-rule="evenodd" d="M319.132 42.6519H313.366V217.225L323.285 216.681L319.132 42.6519Z" fill="#3038E5"/>
</g>
<path d="M330.969 150.814C335.392 148.142 337.634 144.728 338.777 141.95C336.864 143.801 333.815 145.953 328.961 148.049C327.714 148.588 326.398 149.266 325.034 149.983C324.857 150.076 324.679 150.169 324.5 150.264C323.314 150.888 322.098 151.528 320.901 152.095C318.206 153.371 315.33 154.419 312.825 153.913C305.94 152.523 302.608 146.509 299.837 139.93C299.68 139.558 299.541 139.284 299.424 139.087C299.305 139.376 299.183 139.777 299.067 140.293C298.512 142.749 298.242 147.062 298.324 151.585C298.406 156.102 298.836 160.691 299.623 163.698C299.819 164.445 300.03 165.07 300.253 165.562C300.48 166.064 300.693 166.367 300.861 166.524C300.94 166.598 300.992 166.624 301.013 166.632C301.029 166.638 301.035 166.638 301.046 166.637C301.08 166.633 301.262 166.589 301.589 166.247C308.204 159.33 315.578 155.307 321.509 153.169C321.694 153.102 321.921 153.017 322.18 152.919C323.41 152.457 325.389 151.712 327.339 151.286C328.133 151.113 328.957 151.045 329.615 150.99C329.681 150.985 329.746 150.979 329.809 150.974C330.167 150.944 330.453 150.916 330.68 150.879C330.898 150.842 330.973 150.81 330.973 150.811C330.973 150.811 330.972 150.812 330.969 150.814Z" fill="#D9DAFA" stroke="#3038E5" stroke-width="1.98379"/>
<mask id="mask3_3219_76861" style="mask-type:luminance" maskUnits="userSpaceOnUse" x="297" y="136" width="44" height="32">
<path d="M330.969 150.814C335.392 148.142 337.634 144.728 338.777 141.95C336.864 143.801 333.815 145.953 328.961 148.049C327.714 148.588 326.398 149.266 325.034 149.983C324.857 150.076 324.679 150.169 324.5 150.264C323.314 150.888 322.098 151.528 320.901 152.095C318.206 153.371 315.33 154.419 312.825 153.913C305.94 152.523 302.608 146.509 299.837 139.93C299.68 139.558 299.541 139.284 299.424 139.087C299.305 139.376 299.183 139.777 299.067 140.293C298.512 142.749 298.242 147.062 298.324 151.585C298.406 156.102 298.836 160.691 299.623 163.698C299.819 164.445 300.03 165.07 300.253 165.562C300.48 166.064 300.693 166.367 300.861 166.524C300.94 166.598 300.992 166.624 301.013 166.632C301.029 166.638 301.035 166.638 301.046 166.637C301.08 166.633 301.262 166.589 301.589 166.247C308.204 159.33 315.578 155.307 321.509 153.169C321.694 153.102 321.921 153.017 322.18 152.919C323.41 152.457 325.389 151.712 327.339 151.286C328.133 151.113 328.957 151.045 329.615 150.99C329.681 150.985 329.746 150.979 329.809 150.974C330.167 150.944 330.453 150.916 330.68 150.879C330.898 150.842 330.973 150.81 330.973 150.811C330.973 150.811 330.972 150.812 330.969 150.814Z" fill="white" stroke="white" stroke-width="1.98379"/>
</mask>
<g mask="url(#mask3_3219_76861)">
<rect opacity="0.183105" width="5.95137" height="174.573" transform="matrix(-1 0 0 1 319.332 42.6504)" fill="#3038E5"/>
</g>
<rect x="-0.991895" y="0.991895" width="106.133" height="210.282" rx="10.2419" transform="matrix(-1 0 0 1 313.129 0)" fill="white" stroke="#3038E5" stroke-width="1.98379"/>
<mask id="mask4_3219_76861" style="mask-type:luminance" maskUnits="userSpaceOnUse" x="206" y="-1" width="111" height="215">
<rect width="108.117" height="212.265" rx="11.2338" transform="matrix(-1 0 0 1 315.113 0)" fill="white" stroke="white" stroke-width="1.98379"/>
</mask>
<g mask="url(#mask4_3219_76861)">
<rect width="72.4083" height="25.7893" rx="4.71348" transform="matrix(-1 0 0 1 297.824 56.5381)" fill="white" stroke="#3038E5" stroke-width="1.98379"/>
<rect width="72.4083" height="25.7893" rx="4.71348" transform="matrix(-1 0 0 1 297.824 89.2705)" fill="white" stroke="#3038E5" stroke-width="1.98379"/>
<circle cx="2.97568" cy="2.97568" r="2.97568" transform="matrix(-1 0 0 1 287.051 99.1895)" fill="#D9DAFA"/>
<circle cx="2.97568" cy="2.97568" r="2.97568" transform="matrix(-1 0 0 1 275.148 99.1895)" fill="#D9DAFA"/>
<circle cx="2.97568" cy="2.97568" r="2.97568" transform="matrix(-1 0 0 1 263.242 99.1895)" fill="#D9DAFA"/>
<circle cx="2.97568" cy="2.97568" r="2.97568" transform="matrix(-1 0 0 1 251.344 99.1895)" fill="#D9DAFA"/>
<circle cx="2.97568" cy="2.97568" r="2.97568" transform="matrix(-1 0 0 1 239.441 99.1895)" fill="#D9DAFA"/>
<rect width="72.4083" height="22.8136" rx="4.71348" transform="matrix(-1 0 0 1 297.824 122.995)" stroke="#3038E5" stroke-width="1.98379"/>
<rect opacity="0.451125" width="67.4488" height="3.96758" rx="1.98379" transform="matrix(-1 0 0 1 296.09 139.857)" fill="#D9DAFA"/>
<path d="M249.375 136.946H253.564L253.928 135.6H251.283L252.408 131.403H250.863L249.375 136.946ZM256.857 137.049C258.781 137.049 260.159 135.473 260.159 133.787C260.159 132.377 259.09 131.3 257.514 131.3C255.59 131.3 254.212 132.876 254.212 134.563C254.212 135.972 255.281 137.049 256.857 137.049ZM256.991 135.671C256.207 135.671 255.78 135.149 255.78 134.444C255.78 133.62 256.413 132.678 257.379 132.678C258.163 132.678 258.591 133.201 258.591 133.906C258.591 134.729 257.965 135.671 256.991 135.671ZM263.306 137.057C264.122 137.057 264.835 136.82 265.381 136.503L266.173 133.708H263.631L263.338 134.832H264.407L264.185 135.576C263.995 135.663 263.758 135.727 263.449 135.727C262.768 135.727 262.206 135.323 262.206 134.547C262.206 133.525 262.974 132.662 264.09 132.662C264.684 132.662 265.136 132.908 265.46 133.232L266.49 132.235C266.11 131.744 265.302 131.292 264.193 131.292C262.079 131.292 260.638 132.844 260.638 134.61C260.638 136.313 261.984 137.057 263.306 137.057ZM266.218 136.946H267.754L269.243 131.403H267.707L266.218 136.946ZM268.754 136.946H270.282L271.137 133.755L272.634 136.946H273.98L275.469 131.403H273.94L273.109 134.484L271.676 131.403H270.242L268.754 136.946Z" fill="#3038E5"/>
<rect width="48.6028" height="5.95137" rx="2.74953" transform="matrix(-1 0 0 1 286.059 67.4487)" fill="#D9DAFA"/>
<circle cx="2.97568" cy="2.97568" r="2.97568" transform="matrix(-1 0 0 1 263.578 10.9111)" fill="white" stroke="#3038E5" stroke-width="1.98379"/>
<path opacity="0.183105" fill-rule="evenodd" clip-rule="evenodd" d="M244.901 214.665C250.846 176.109 218.575 167.901 216.956 164.587C211.919 154.283 216.956 141.683 216.956 129.826C216.956 114.491 203.425 106.706 194.483 109.765C191.349 110.837 191.715 116.312 191.715 126.899C191.715 151.877 191.566 195.825 191.715 200.551C192.368 221.288 247.582 257.893 262.091 257.893C276.6 257.893 281.209 253.559 284.887 250.837" fill="#3038E5"/>
</g>
<path fill-rule="evenodd" clip-rule="evenodd" d="M238.998 214.647C244.941 176.074 211.346 169.929 211.06 167.038C209.75 153.791 208.434 142.388 211.06 129.771C213.982 115.728 197.533 106.642 188.593 109.702C185.46 110.774 185.825 116.252 185.825 126.843C185.825 151.832 185.676 195.799 185.825 200.527C186.478 221.272 241.678 257.893 256.184 257.893" fill="white"/>
<path d="M238.998 214.647C244.941 176.074 211.346 169.929 211.06 167.038C209.75 153.791 208.434 142.388 211.06 129.771C213.982 115.728 197.533 106.642 188.593 109.702C185.46 110.774 185.825 116.252 185.825 126.843C185.825 151.832 185.676 195.799 185.825 200.527C186.478 221.272 241.678 257.893 256.184 257.893" stroke="#3038E5" stroke-width="1.98379"/>
<path fill-rule="evenodd" clip-rule="evenodd" d="M338.902 108.702C341.198 104.812 340.633 98.5931 337.105 93.7439C333.578 88.8946 328.846 87.6734 325.424 87.6734C322.003 87.6734 312.704 90.4419 308.627 96.7689C304.55 103.096 312.106 116.306 320.503 117.166C328.9 118.026 336.605 112.592 338.902 108.702Z" fill="white" stroke="#3038E5" stroke-width="1.98379"/>
<path fill-rule="evenodd" clip-rule="evenodd" d="M339.861 141.486C342.157 137.596 341.085 130.543 337.558 125.693C334.03 120.844 329.298 119.623 325.877 119.623C322.455 119.623 306.132 125.354 302.055 131.681C297.978 138.008 305.397 152.734 313.794 153.594C317.738 153.998 322.542 151.139 327.487 148.725C333.069 146 338.643 143.549 339.861 141.486Z" fill="white" stroke="#3038E5" stroke-width="1.98379"/>
<path fill-rule="evenodd" clip-rule="evenodd" d="M343.825 173.227C346.122 169.337 345.05 162.283 341.523 157.434C337.995 152.585 333.263 151.364 329.841 151.364C326.42 151.364 310.097 157.095 306.02 163.422C301.943 169.749 309.361 184.475 317.758 185.335C321.703 185.739 326.507 182.88 331.451 180.466C337.033 177.741 342.608 175.289 343.825 173.227Z" fill="white" stroke="#3038E5" stroke-width="1.98379"/>
<path opacity="0.183105" fill-rule="evenodd" clip-rule="evenodd" d="M158.389 228.336L169.888 234.724L171.196 247.171L182.324 241.632L269.415 281.037C269.415 281.037 245.169 351.572 182.925 387.867C120.681 424.162 80.1552 422.514 80.1552 422.514L38.4581 258.163C38.4581 258.163 73.7776 280.584 103.487 273.195C133.197 265.806 158.389 228.336 158.389 228.336Z" fill="#3038E5"/>
<path d="M187.003 204.151C195.584 208.159 214.485 217.48 230.851 228.962C247.145 240.394 261.755 254.548 268.215 261.099C269.946 262.855 270.146 265.588 268.716 267.635L266.445 270.885L178.39 209.108L180.627 205.907C182.071 203.841 184.745 203.096 187.003 204.151Z" fill="white" stroke="#3038E5" stroke-width="1.98379"/>
<path d="M182.441 208.661C190.408 212.994 207.21 222.518 224.852 234.896C242.885 247.547 259.56 261.61 267.054 268.106C269.06 269.845 269.404 272.808 267.871 275.003L257.67 289.6L165.512 224.944L175.762 210.277C177.278 208.108 180.139 207.408 182.441 208.661Z" fill="white" stroke="#3038E5" stroke-width="1.98379"/>
<path d="M171.006 210.124L178.011 215.039C178.585 215.442 178.926 216.099 178.926 216.8L178.926 226.513C178.926 227.769 180.197 228.639 181.372 228.159C183.471 227.301 188.084 225.41 189.803 224.658C191.612 223.866 196.039 223.693 202.32 228.089C203.665 229.03 205.184 230.085 206.903 231.279C209.521 233.097 212.601 235.236 216.236 237.786C240.27 254.648 262.042 272.764 268.536 278.252C269.32 278.915 269.493 279.991 268.965 280.837C262.499 291.203 232.16 336.365 176.387 367.97C144.796 385.871 100.295 391.625 63.5704 392.874C45.23 393.498 28.8717 392.998 17.0989 392.341C11.213 392.013 6.47466 391.646 3.20944 391.361C1.57686 391.219 0.312646 391.097 -0.542489 391.01C-0.694449 390.995 -0.833497 390.981 -0.95939 390.968L-0.959392 218.517C-0.640211 218.71 -0.273056 218.931 0.139792 219.178C1.82741 220.186 4.27888 221.625 7.33863 223.352C13.4573 226.804 22.0127 231.408 31.7597 236.013C51.2054 245.2 75.5671 254.476 94.7891 254.476C111.547 254.476 127.904 245.723 140.984 235.928C154.089 226.115 164.045 215.15 168.024 210.51C168.778 209.63 170.067 209.466 171.006 210.124Z" fill="white" stroke="#3038E5" stroke-width="1.98379"/>
<path fill-rule="evenodd" clip-rule="evenodd" d="M186.867 146.469C186.867 146.469 189.38 145.808 191.849 145.808C194.318 145.808 196.786 146.469 196.786 146.469V147.792C196.786 147.792 194.329 147.131 191.842 147.131C189.355 147.131 186.867 147.792 186.867 147.792V146.469Z" fill="#3038E5"/>
<path fill-rule="evenodd" clip-rule="evenodd" d="M189.844 149.001C189.844 149.001 191.331 148.784 192.819 148.784C194.308 148.784 195.795 149.296 195.795 149.296V150.768C195.795 150.768 194.303 150.256 192.819 150.256C191.336 150.256 189.844 150.473 189.844 150.473V149.001Z" fill="#3038E5"/>
</g>
<defs>
<clipPath id="clip0_3219_76861">
<rect width="349" height="322.06" fill="white" transform="translate(0.5)"/>
</clipPath>
</defs>
</svg>
