<svg width="24" height="25" viewBox="0 0 24 25" fill="none" xmlns="http://www.w3.org/2000/svg">
<path d="M4.47091 2.9668H3.2C1.98487 2.9668 1 3.95166 1 5.1668C1 6.38193 1.98487 7.3668 3.2 7.3668" stroke="#648CFF" stroke-width="2" stroke-linecap="round" stroke-linejoin="round"/>
<path d="M5.40039 7.36667V1.5H17.8671V7.36667" stroke="#648CFF" stroke-width="2" stroke-linecap="round" stroke-linejoin="round"/>
<path d="M20.8 12.2356V7.3665H16.4H6.86667H3.2C1.98487 7.3665 1 6.38164 1 5.1665V20.5665C1 22.1864 2.3134 23.4998 3.93333 23.4998H20.8V18.6121" stroke="#648CFF" stroke-width="2" stroke-linecap="round" stroke-linejoin="round"/>
<path fill-rule="evenodd" clip-rule="evenodd" d="M22.9993 17.6334H17.866C16.6509 17.6334 15.666 16.6485 15.666 15.4334V15.4334C15.666 14.2183 16.6509 13.2334 17.866 13.2334H22.9993V17.6334Z" stroke="#648CFF" stroke-width="2" stroke-linecap="round" stroke-linejoin="round"/>
</svg>
